<svg width="19" height="18" viewBox="0 0 19 18" fill="none" xmlns="http://www.w3.org/2000/svg">
<path d="M9.05947 0C4.10746 0 0.0774114 4.0014 0.0756653 8.919C0.0745012 10.4916 0.488914 12.0264 1.27467 13.3782L0 18L4.76284 16.7598C6.08769 17.4742 7.56081 17.8469 9.05597 17.8458H9.05947C14.0115 17.8458 18.0415 13.8438 18.0433 8.9262C18.0444 6.5442 17.1108 4.302 15.4142 2.6166C13.7181 0.9306 11.4627 0.0006 9.05947 0ZM9.05947 16.3392H9.05656C7.7167 16.3392 6.40245 15.9816 5.25583 15.306L4.98227 15.1452L2.15704 15.8808L2.91137 13.1448L2.73385 12.8646C1.9882 11.6923 1.59126 10.3208 1.59188 8.919C1.59363 4.8312 4.94386 1.5066 9.06238 1.5066C11.0564 1.5072 12.9312 2.2794 14.3415 3.6804C15.7518 5.0814 16.5276 6.9444 16.5265 8.9256C16.5247 13.0134 13.1751 16.3392 9.05888 16.3392H9.05947ZM13.1553 10.7862C12.9306 10.6752 11.8271 10.1358 11.621 10.0608C11.4156 9.987 11.266 9.9486 11.1164 10.1718C10.9674 10.395 10.5367 10.8972 10.4063 11.0454C10.2748 11.1942 10.1438 11.2122 9.91914 11.1012C9.69447 10.9896 8.971 10.7544 8.11423 9.9948C7.44663 9.4044 6.99613 8.6748 6.86517 8.451C6.73421 8.2284 6.8512 8.1078 6.96354 7.9968C7.06423 7.8978 7.18821 7.737 7.29996 7.6068C7.41171 7.4766 7.44896 7.3836 7.52463 7.2348C7.59913 7.0866 7.56188 6.9558 7.50542 6.8448C7.44896 6.7326 7.00079 5.6358 6.81279 5.19C6.63119 4.7556 6.4461 4.8138 6.30816 4.8066C6.1772 4.8006 6.0282 4.7988 5.87745 4.7988C5.72903 4.7988 5.48515 4.8546 5.27911 5.0778C5.07365 5.301 4.49336 5.8398 4.49336 6.9366C4.49336 8.034 5.29774 9.0936 5.41007 9.2424C5.5224 9.3906 6.99322 11.6424 9.24514 12.6084C9.78061 12.837 10.1985 12.9744 10.525 13.0776C11.0629 13.2474 11.5523 13.2228 11.9388 13.1658C12.3695 13.1016 13.267 12.627 13.4533 12.1068C13.6407 11.5866 13.6407 11.1402 13.5848 11.0472C13.5301 10.9542 13.38 10.8984 13.1553 10.7862Z" fill="black"/>
</svg>
