<svg width="74" height="44" viewBox="0 0 74 44" fill="none" xmlns="http://www.w3.org/2000/svg">
<path d="M20.8539 15.98C20.8539 16.8855 20.9524 17.6196 21.1246 18.158C21.3215 18.6964 21.5676 19.2837 21.9122 19.9199C22.0353 20.1157 22.0845 20.3115 22.0845 20.4828C22.0845 20.7275 21.9368 20.9722 21.6169 21.2169L20.0663 22.2448C19.8448 22.3916 19.6233 22.465 19.4264 22.465C19.1803 22.465 18.9342 22.3426 18.6881 22.1224C18.3435 21.7553 18.0482 21.3638 17.8021 20.9722C17.5559 20.5562 17.3098 20.0912 17.0391 19.5284C15.1194 21.7798 12.7075 22.9055 9.80328 22.9055C7.7359 22.9055 6.08692 22.3182 4.88095 21.1435C3.67498 19.9689 3.05969 18.4027 3.05969 16.445C3.05969 14.3649 3.79804 12.6763 5.29935 11.4038C6.80066 10.1313 8.7942 9.49501 11.3292 9.49501C12.166 9.49501 13.0274 9.56843 13.938 9.69078C14.8487 9.81314 15.7839 10.0089 16.7684 10.2292V8.44273C16.7684 6.58288 16.3746 5.28588 15.6116 4.52726C14.8241 3.76864 13.495 3.40156 11.5999 3.40156C10.7385 3.40156 9.8525 3.49945 8.94187 3.71969C8.03124 3.93994 7.14522 4.20913 6.28382 4.55173C5.89003 4.72303 5.59469 4.82092 5.42241 4.86986C5.25013 4.91881 5.12707 4.94328 5.02862 4.94328C4.68406 4.94328 4.51178 4.69856 4.51178 4.18466V2.98554C4.51178 2.594 4.561 2.30034 4.68406 2.12904C4.80712 1.95773 5.02862 1.78643 5.37319 1.61513C6.23459 1.17464 7.26828 0.807565 8.47425 0.513905C9.68022 0.195773 10.96 0.0489433 12.3137 0.0489433C15.2425 0.0489433 17.3837 0.709678 18.7619 2.03115C20.1156 3.35262 20.8047 5.3593 20.8047 8.05118V15.98H20.8539ZM10.8616 19.6997C11.6738 19.6997 12.5106 19.5529 13.3966 19.2592C14.2826 18.9656 15.0702 18.4272 15.7347 17.693C16.1285 17.2281 16.4238 16.7142 16.5715 16.1268C16.7192 15.5395 16.8176 14.8298 16.8176 13.9978V12.97C16.1039 12.7987 15.3409 12.6519 14.5533 12.554C13.7658 12.4561 13.0028 12.4071 12.2398 12.4071C10.5909 12.4071 9.38488 12.7253 8.5727 13.386C7.76052 14.0467 7.36673 14.9767 7.36673 16.2003C7.36673 17.3504 7.66207 18.2069 8.27736 18.7942C8.86804 19.406 9.72945 19.6997 10.8616 19.6997V19.6997ZM30.6247 22.3426C30.1817 22.3426 29.8864 22.2692 29.6895 22.0979C29.4926 21.9511 29.3203 21.6085 29.1726 21.1435L23.3889 2.22692C23.2412 1.73749 23.1674 1.41936 23.1674 1.24806C23.1674 0.856509 23.3643 0.636264 23.7581 0.636264H26.17C26.6376 0.636264 26.9576 0.709679 27.1299 0.88098C27.3268 1.02781 27.4744 1.37041 27.6221 1.83538L31.7569 18.0356L35.5963 1.83538C35.7193 1.34594 35.867 1.02781 36.0639 0.88098C36.2608 0.73415 36.6054 0.636264 37.0484 0.636264H39.0173C39.4849 0.636264 39.8049 0.709679 40.0018 0.88098C40.1987 1.02781 40.3709 1.37041 40.4694 1.83538L44.358 18.2314L48.6158 1.83538C48.7635 1.34594 48.9358 1.02781 49.1081 0.88098C49.305 0.73415 49.6249 0.636264 50.0679 0.636264H52.3568C52.7506 0.636264 52.9721 0.832037 52.9721 1.24806C52.9721 1.37041 52.9475 1.49277 52.9229 1.6396C52.8983 1.78643 52.849 1.98221 52.7506 2.25139L46.8192 21.168C46.6715 21.6574 46.4992 21.9756 46.3023 22.1224C46.1054 22.2692 45.7855 22.3671 45.3671 22.3671H43.2505C42.7829 22.3671 42.4629 22.2937 42.266 22.1224C42.0691 21.9511 41.8969 21.633 41.7984 21.1435L37.9836 5.3593L34.1934 21.1191C34.0704 21.6085 33.9227 21.9266 33.7258 22.0979C33.5289 22.2692 33.1843 22.3426 32.7413 22.3426H30.6247ZM62.2507 23.0034C60.9709 23.0034 59.6911 22.8565 58.4605 22.5629C57.2299 22.2692 56.2701 21.9511 55.6302 21.584C55.2364 21.3638 54.9656 21.1191 54.8672 20.8988C54.7687 20.6786 54.7195 20.4338 54.7195 20.2136V18.9655C54.7195 18.4516 54.9164 18.2069 55.2856 18.2069C55.4333 18.2069 55.5809 18.2314 55.7286 18.2803C55.8763 18.3293 56.0978 18.4272 56.3439 18.5251C57.1807 18.8921 58.0913 19.1858 59.0512 19.3816C60.0356 19.5773 60.9955 19.6752 61.98 19.6752C63.5305 19.6752 64.7365 19.406 65.5733 18.8677C66.4101 18.3293 66.8531 17.5462 66.8531 16.5429C66.8531 15.8576 66.6316 15.2948 66.1885 14.8298C65.7455 14.3649 64.9087 13.9489 63.7028 13.5573L60.1341 12.4561C58.3374 11.8932 57.0084 11.0612 56.1962 9.95997C55.384 8.88322 54.9656 7.68411 54.9656 6.41158C54.9656 5.38377 55.1871 4.47832 55.6302 3.69522C56.0732 2.91213 56.6638 2.22692 57.4022 1.68855C58.1405 1.1257 58.9773 0.709679 59.9618 0.416018C60.9463 0.122358 61.98 0 63.0629 0C63.6043 0 64.1704 0.0244717 64.7119 0.0978867C65.2779 0.171302 65.7948 0.269188 66.3116 0.367075C66.8038 0.489433 67.2715 0.611792 67.7145 0.758622C68.1575 0.905452 68.502 1.05228 68.7482 1.19911C69.0927 1.39489 69.3388 1.59066 69.4865 1.8109C69.6342 2.00668 69.708 2.27587 69.708 2.61847V3.76864C69.708 4.28254 69.5111 4.55173 69.1419 4.55173C68.9451 4.55173 68.6251 4.45385 68.2067 4.25807C66.8038 3.62181 65.2287 3.30368 63.4813 3.30368C62.0784 3.30368 60.9709 3.52392 60.2079 3.98888C59.445 4.45384 59.0512 5.16352 59.0512 6.16686C59.0512 6.85207 59.2973 7.43939 59.7895 7.90435C60.2818 8.36931 61.1924 8.83428 62.4968 9.25029L65.9917 10.3515C67.7637 10.9144 69.0435 11.6975 69.8065 12.7008C70.5694 13.7041 70.9386 14.8543 70.9386 16.1268C70.9386 17.1791 70.7171 18.1335 70.2987 18.9655C69.8557 19.7976 69.265 20.5317 68.502 21.1191C67.7391 21.7308 66.8284 22.1713 65.7701 22.4895C64.6626 22.8321 63.5059 23.0034 62.2507 23.0034V23.0034Z" fill="#252F3E"/>
<path fill-rule="evenodd" clip-rule="evenodd" d="M66.9023 34.8966C58.805 40.8432 47.0407 44 36.9253 44C22.749 44 9.97559 38.7876 0.327831 30.1246C-0.435129 29.4394 0.253996 28.5094 1.16463 29.0478C11.6 35.0679 24.4718 38.7141 37.7867 38.7141C46.77 38.7141 56.6392 36.8543 65.7209 33.0367C67.0745 32.4249 68.2313 33.9177 66.9023 34.8966V34.8966Z" fill="#FF9900"/>
<path fill-rule="evenodd" clip-rule="evenodd" d="M70.2741 31.079C69.2404 29.7575 63.4321 30.4427 60.7987 30.7608C60.0111 30.8587 59.888 30.1735 60.6018 29.6596C65.2287 26.4293 72.8337 27.3593 73.7197 28.436C74.6057 29.5372 73.4736 37.099 69.1419 40.7208C68.4774 41.2836 67.8375 40.99 68.1329 40.2558C69.1173 37.8331 71.3078 32.376 70.2741 31.079V31.079Z" fill="#FF9900"/>
</svg>
