<svg width="74" height="44" viewBox="0 0 74 44" fill="none" xmlns="http://www.w3.org/2000/svg">
<path d="M20.7355 15.9801C20.7355 16.8855 20.8334 17.6197 21.0047 18.1581C21.2005 18.6965 21.4452 19.2838 21.7878 19.92C21.9102 20.1158 21.9591 20.3116 21.9591 20.4829C21.9591 20.7276 21.8123 20.9723 21.4942 21.2171L19.9524 22.2449C19.7322 22.3917 19.5119 22.4651 19.3162 22.4651C19.0714 22.4651 18.8267 22.3428 18.582 22.1225C18.2394 21.7554 17.9457 21.3639 17.701 20.9723C17.4563 20.5563 17.2116 20.0914 16.9424 19.5285C15.0336 21.7799 12.6354 22.9056 9.74769 22.9056C7.69206 22.9056 6.05245 22.3183 4.85333 21.1436C3.65421 19.969 3.04242 18.4028 3.04242 16.4451C3.04242 14.365 3.77657 12.6764 5.26935 11.4039C6.76213 10.1313 8.74435 9.49506 11.2649 9.49506C12.097 9.49506 12.9535 9.56848 13.859 9.69084C14.7644 9.8132 15.6943 10.009 16.6732 10.2292V8.44277C16.6732 6.58292 16.2817 5.28591 15.523 4.52728C14.7399 3.76866 13.4185 3.40158 11.5341 3.40158C10.6776 3.40158 9.79664 3.49947 8.89118 3.71971C7.98572 3.93996 7.10474 4.20915 6.24823 4.55176C5.85668 4.72306 5.56301 4.82095 5.39171 4.86989C5.22041 4.91883 5.09805 4.9433 5.00016 4.9433C4.65756 4.9433 4.48626 4.69859 4.48626 4.18468V2.98556C4.48626 2.59401 4.5352 2.30035 4.65756 2.12905C4.77992 1.95774 5.00016 1.78644 5.34277 1.61514C6.19928 1.17465 7.2271 0.80757 8.42621 0.513908C9.62533 0.195774 10.8979 0.0489436 12.2438 0.0489436C15.156 0.0489436 17.285 0.709682 18.6554 2.03116C20.0014 3.35264 20.6866 5.35933 20.6866 8.05122V15.9801H20.7355ZM10.8 19.6998C11.6075 19.6998 12.4396 19.553 13.3206 19.2593C14.2016 18.9657 14.9847 18.4273 15.6454 17.6931C16.0369 17.2282 16.3306 16.7142 16.4774 16.1269C16.6243 15.5396 16.7222 14.8299 16.7222 13.9979V12.9701C16.0125 12.7988 15.2538 12.6519 14.4707 12.554C13.6877 12.4562 12.929 12.4072 12.1704 12.4072C10.5308 12.4072 9.33167 12.7253 8.5241 13.3861C7.71653 14.0468 7.32498 14.9767 7.32498 16.2003C7.32498 17.3505 7.61865 18.207 8.23044 18.7943C8.81776 19.4061 9.67428 19.6998 10.8 19.6998ZM30.4508 22.3428C30.0103 22.3428 29.7167 22.2693 29.5209 22.098C29.3251 21.9512 29.1538 21.6086 29.007 21.1436L23.2561 2.22693C23.1093 1.7375 23.0359 1.41936 23.0359 1.24806C23.0359 0.856513 23.2317 0.636267 23.6232 0.636267H26.0214C26.4864 0.636267 26.8045 0.709682 26.9758 0.880985C27.1716 1.02782 27.3184 1.37042 27.4653 1.83539L31.5765 18.0357L35.3941 1.83539C35.5165 1.34595 35.6633 1.02782 35.8591 0.880985C36.0549 0.734154 36.3975 0.636267 36.838 0.636267H38.7957C39.2607 0.636267 39.5788 0.709682 39.7746 0.880985C39.9704 1.02782 40.1417 1.37042 40.2396 1.83539L44.1061 18.2315L48.3397 1.83539C48.4865 1.34595 48.6578 1.02782 48.8292 0.880985C49.0249 0.734154 49.3431 0.636267 49.7836 0.636267H52.0594C52.451 0.636267 52.6712 0.832041 52.6712 1.24806C52.6712 1.37042 52.6468 1.49278 52.6223 1.63961C52.5978 1.78644 52.5489 1.98222 52.451 2.25141L46.5533 21.1681C46.4064 21.6575 46.2351 21.9757 46.0394 22.1225C45.8436 22.2693 45.5255 22.3672 45.1094 22.3672H43.0049C42.5399 22.3672 42.2218 22.2938 42.026 22.1225C41.8302 21.9512 41.6589 21.6331 41.561 21.1436L37.7679 5.35933L33.9992 21.1192C33.8769 21.6086 33.7301 21.9267 33.5343 22.098C33.3385 22.2693 32.9959 22.3428 32.5554 22.3428H30.4508ZM61.8971 23.0035C60.6246 23.0035 59.352 22.8567 58.1284 22.563C56.9048 22.2693 55.9504 21.9512 55.3142 21.5841C54.9226 21.3639 54.6534 21.1192 54.5556 20.8989C54.4577 20.6787 54.4087 20.434 54.4087 20.2137V18.9657C54.4087 18.4517 54.6045 18.207 54.9716 18.207C55.1184 18.207 55.2652 18.2315 55.4121 18.2804C55.5589 18.3294 55.7791 18.4273 56.0239 18.5252C56.8559 18.8922 57.7614 19.1859 58.7158 19.3817C59.6946 19.5774 60.649 19.6753 61.6279 19.6753C63.1696 19.6753 64.3687 19.4061 65.2008 18.8678C66.0328 18.3294 66.4733 17.5463 66.4733 16.5429C66.4733 15.8577 66.2531 15.2949 65.8126 14.8299C65.3721 14.365 64.54 13.9489 63.3409 13.5574L59.7925 12.4562C58.0061 11.8933 56.6846 11.0613 55.877 9.96002C55.0695 8.88327 54.6534 7.68415 54.6534 6.41161C54.6534 5.3838 54.8737 4.47834 55.3142 3.69524C55.7547 2.91214 56.342 2.22693 57.0761 1.68855C57.8103 1.1257 58.6423 0.709682 59.6212 0.416021C60.6001 0.122359 61.6279 0 62.7047 0C63.243 0 63.8059 0.0244718 64.3443 0.0978872C64.9071 0.171303 65.421 0.26919 65.9349 0.367077C66.4244 0.489436 66.8893 0.611795 67.3298 0.758626C67.7703 0.905457 68.1129 1.05229 68.3577 1.19912C68.7003 1.39489 68.945 1.59067 69.0918 1.81091C69.2386 2.00669 69.312 2.27588 69.312 2.61848V3.76866C69.312 4.28257 69.1163 4.55176 68.7492 4.55176C68.5534 4.55176 68.2353 4.45387 67.8193 4.25809C66.4244 3.62183 64.8582 3.30369 63.1207 3.30369C61.7258 3.30369 60.6246 3.52394 59.8659 3.9889C59.1073 4.45387 58.7158 5.16355 58.7158 6.16689C58.7158 6.85211 58.9605 7.43943 59.4499 7.90439C59.9394 8.36936 60.8448 8.83432 62.1418 9.25034L65.6168 10.3516C67.3788 10.9144 68.6513 11.6975 69.4099 12.7009C70.1686 13.7042 70.5356 14.8544 70.5356 16.1269C70.5356 17.1792 70.3154 18.1336 69.8994 18.9657C69.4589 19.7977 68.8716 20.5318 68.1129 21.1192C67.3543 21.731 66.4488 22.1715 65.3966 22.4896C64.2953 22.8322 63.1452 23.0035 61.8971 23.0035Z" fill="white"/>
<path fill-rule="evenodd" clip-rule="evenodd" d="M66.5221 34.8966C58.4709 40.8433 46.7734 44.0002 36.7155 44.0002C22.6198 44.0002 9.91891 38.7877 0.325968 30.1246C-0.432657 29.4394 0.252553 28.5095 1.15801 29.0479C11.534 35.0679 24.3328 38.7143 37.572 38.7143C46.5042 38.7143 56.3174 36.8544 65.3475 33.0368C66.6934 32.425 67.8436 33.9178 66.5221 34.8966Z" fill="#FF9900"/>
<path fill-rule="evenodd" clip-rule="evenodd" d="M69.8749 31.0792C68.847 29.7577 63.0717 30.443 60.4533 30.7611C59.6702 30.859 59.5478 30.1738 60.2575 29.6599C64.8582 26.4296 72.4199 27.3595 73.3009 28.4363C74.1819 29.5375 73.0562 37.0993 68.7492 40.7211C68.0884 41.284 67.4522 40.9903 67.7458 40.2562C68.7247 37.8334 70.9027 32.3762 69.8749 31.0792Z" fill="#FF9900"/>
</svg>
