<svg width="55" height="44" viewBox="0 0 55 44" fill="none" xmlns="http://www.w3.org/2000/svg">
<path d="M6.06729 5.7502C5.96353 2.75863 8.28523 0 11.4235 0H43.5805C46.7187 0 49.0405 2.75863 48.9367 5.7502C48.837 8.62389 48.9664 12.3464 49.8996 15.3817C50.8358 18.4263 52.4145 20.3508 55 20.598V23.402C52.4145 23.6492 50.8358 25.5737 49.8996 28.6183C48.9664 31.6536 48.837 35.3761 48.9367 38.2499C49.0405 41.2414 46.7187 44 43.5805 44H11.4235C8.28523 44 5.96353 41.2414 6.0674 38.2499C6.16698 35.3761 6.03754 31.6536 5.10426 28.6183C4.16818 25.5737 2.58564 23.6492 0 23.402V20.598C2.58554 20.3508 4.16818 18.4263 5.10426 15.3817C6.03754 12.3464 6.16698 8.62389 6.06729 5.7502Z" fill="url(#paint0_linear_74_13380)"/>
<g filter="url(#filter0_d_74_13380)">
<path d="M28.6927 33.6964C33.7735 33.6964 36.8351 31.199 36.8351 27.0797C36.8351 23.9659 34.6505 21.7117 31.4068 21.3548V21.2251C33.79 20.8359 35.6601 18.6141 35.6601 16.1328C35.6601 12.5974 32.8798 10.2944 28.6431 10.2944H19.1105V33.6964H28.6927ZM22.8176 13.2623H27.7494C30.4305 13.2623 31.953 14.4624 31.953 16.6355C31.953 18.9547 30.1822 20.252 26.9716 20.252H22.8176V13.2623ZM22.8176 30.7287V23.0253H27.7163C31.2248 23.0253 33.0452 24.3227 33.0452 26.8527C33.0452 29.3826 31.2745 30.7287 27.9314 30.7287H22.8176Z" fill="url(#paint1_linear_74_13380)"/>
<path d="M28.6927 33.6964C33.7735 33.6964 36.8351 31.199 36.8351 27.0797C36.8351 23.9659 34.6505 21.7117 31.4068 21.3548V21.2251C33.79 20.8359 35.6601 18.6141 35.6601 16.1328C35.6601 12.5974 32.8798 10.2944 28.6431 10.2944H19.1105V33.6964H28.6927ZM22.8176 13.2623H27.7494C30.4305 13.2623 31.953 14.4624 31.953 16.6355C31.953 18.9547 30.1822 20.252 26.9716 20.252H22.8176V13.2623ZM22.8176 30.7287V23.0253H27.7163C31.2248 23.0253 33.0452 24.3227 33.0452 26.8527C33.0452 29.3826 31.2745 30.7287 27.9314 30.7287H22.8176Z" stroke="white" stroke-width="0.195312"/>
</g>
<defs>
<filter id="filter0_d_74_13380" x="15.8878" y="7.85303" width="24.1699" height="29.8473" filterUnits="userSpaceOnUse" color-interpolation-filters="sRGB">
<feFlood flood-opacity="0" result="BackgroundImageFix"/>
<feColorMatrix in="SourceAlpha" type="matrix" values="0 0 0 0 0 0 0 0 0 0 0 0 0 0 0 0 0 0 127 0" result="hardAlpha"/>
<feOffset dy="0.78125"/>
<feGaussianBlur stdDeviation="1.5625"/>
<feColorMatrix type="matrix" values="0 0 0 0 0 0 0 0 0 0 0 0 0 0 0 0 0 0 0.15 0"/>
<feBlend mode="normal" in2="BackgroundImageFix" result="effect1_dropShadow_74_13380"/>
<feBlend mode="normal" in="SourceGraphic" in2="effect1_dropShadow_74_13380" result="shape"/>
</filter>
<linearGradient id="paint0_linear_74_13380" x1="8.17255" y1="1.16449" x2="56.3785" y2="39.2809" gradientUnits="userSpaceOnUse">
<stop stop-color="#9013FE"/>
<stop offset="1" stop-color="#6610F2"/>
</linearGradient>
<linearGradient id="paint1_linear_74_13380" x1="20.787" y1="11.8348" x2="31.5923" y2="30.0374" gradientUnits="userSpaceOnUse">
<stop stop-color="white"/>
<stop offset="1" stop-color="#F1E5FC"/>
</linearGradient>
</defs>
</svg>
