<svg width="38" height="44" viewBox="0 0 38 44" fill="none" xmlns="http://www.w3.org/2000/svg">
<path d="M0 0L3.46189 39.5954L19.0233 44L34.5418 39.6016L38 0H0Z" fill="#264DE4"/>
<path d="M6.42566 37.0741L3.46724 3.23804H19V40.6333L6.42566 37.0741Z" fill="#2965F1"/>
<path d="M30.0721 17.9257L29.6457 22.7826H19V17.9257H30.0721Z" fill="#EBEBEB"/>
<path d="M19 8.09497H19.0164H30.9288L30.4963 12.952H19V8.09497Z" fill="#EBEBEB"/>
<path d="M19 35.593V30.5397L19.0209 30.5453L24.319 29.0847L24.6577 25.2111H27.2322H29.4332L28.7667 32.8372L19.0219 35.5992L19 35.593Z" fill="#EBEBEB"/>
<path d="M13.1585 22.7825L13.7106 29.0817L19.0164 30.5438V35.5968L9.26389 32.8372L9.19234 32.0167L8.07445 19.2298L7.95838 17.9256L7.09956 8.09497H19.0164V12.952H12.313L12.7459 17.9256H19.0164V22.7825H13.1585Z" fill="white"/>
</svg>
