<svg width="44" height="44" viewBox="0 0 44 44" fill="none" xmlns="http://www.w3.org/2000/svg">
<g clip-path="url(#clip0_74_13384)">
<path d="M11.8263 11.9059L8.99915 9.07874V29.4661L9.03896 30.4217C9.03896 30.8597 9.1186 31.3774 9.27788 31.895L31.6562 39.7792L37.2308 37.3104L11.8263 11.9059Z" fill="#00C4B3"/>
<path d="M37.2308 37.3104L31.6561 39.7792L9.31763 31.895C9.75564 33.5276 10.6715 35.3593 11.7068 36.3946L18.9936 43.6416L35.2398 43.6814L37.2308 37.3104Z" fill="#22D3C5"/>
<path d="M9.07872 9.07874L0.398176 22.219C-0.318567 22.9756 0.0398045 24.5683 1.19456 25.7629L6.21175 30.8199L9.35745 31.9348C9.238 31.4172 9.11854 30.8995 9.11854 30.4615L9.07872 29.5059V9.07874Z" fill="#0075C9"/>
<path d="M31.8154 9.31768C31.2978 9.19822 30.7801 9.11858 30.3421 9.07876L29.3467 9.03894H8.99915L37.2308 37.2706L39.6996 31.6959L31.8154 9.31768Z" fill="#0075C9"/>
<path d="M36.3149 11.7068C35.2797 10.6715 33.4878 9.71582 31.8154 9.31763L39.6996 31.6959L37.2308 37.2706L43.2833 35.3194V18.7149L36.3149 11.7068Z" fill="#00A8E1"/>
<path d="M30.7005 6.21181L25.6435 1.19462C24.4887 0.0398655 22.8959 -0.318505 22.0996 0.398237L8.95929 9.07878H29.3068L30.3023 9.1186C30.7403 9.1186 31.2579 9.19823 31.7756 9.35751L30.7005 6.21181Z" fill="#00C4B3"/>
</g>
<defs>
<clipPath id="clip0_74_13384">
<rect width="44" height="44" fill="white"/>
</clipPath>
</defs>
</svg>
