<svg width="62" height="44" viewBox="0 0 62 44" fill="none" xmlns="http://www.w3.org/2000/svg">
<path d="M61.3885 16.6097C61.2204 16.4777 59.6506 15.3055 56.3402 15.3055C55.4661 15.3092 54.5938 15.3834 53.7319 15.5272C53.0912 11.184 49.4604 9.06646 49.2976 8.97146L48.4087 8.46448L47.824 9.29884C47.0919 10.4197 46.5574 11.6552 46.2436 12.953C45.6509 15.4322 46.0113 17.7608 47.2848 19.7516C45.747 20.5991 43.2803 20.8077 42.7811 20.8262H1.94076C0.874026 20.8277 0.00841805 21.6802 0.00260452 22.7351C-0.0450317 26.2736 0.561136 29.7909 1.79126 33.1139C3.19813 36.7628 5.29117 39.4506 8.01425 41.0955C11.0656 42.9436 16.0232 43.9998 21.6428 43.9998C24.1815 44.0076 26.7154 43.7804 29.2113 43.3212C32.6808 42.6912 36.0195 41.4918 39.089 39.7727C41.6182 38.3241 43.8945 36.4814 45.8299 34.3152C49.0655 30.6928 50.9931 26.6584 52.4266 23.0731H52.9979C56.5405 23.0731 58.719 21.671 59.9203 20.4962C60.7187 19.7468 61.3419 18.834 61.7464 17.8216L62 17.0876L61.3885 16.6097Z" fill="#2496ED"/>
<path d="M5.72631 19.6435H11.1991C11.463 19.6435 11.6769 19.4319 11.6769 19.1709V14.3497C11.6784 14.0887 11.4656 13.876 11.2018 13.8745C11.2009 13.8745 11.2 13.8745 11.1991 13.8745H5.72631C5.46236 13.8745 5.24847 14.0861 5.24847 14.3471V14.3497V19.1708C5.24847 19.4319 5.46236 19.6435 5.72631 19.6435Z" fill="#2496ED"/>
<path d="M13.2681 19.6435H18.7409C19.0048 19.6435 19.2187 19.4319 19.2187 19.1709V14.3497C19.2202 14.0887 19.0074 13.876 18.7435 13.8745C18.7426 13.8745 18.7417 13.8745 18.7408 13.8745H13.268C13.0026 13.8745 12.7875 14.0872 12.7875 14.3497V19.1708C12.789 19.4323 13.0037 19.6435 13.2681 19.6435Z" fill="#2496ED"/>
<path d="M20.9246 19.6435H26.3974C26.6613 19.6435 26.8752 19.4319 26.8752 19.1709V14.3497C26.8767 14.0887 26.6639 13.876 26.4 13.8745C26.3991 13.8745 26.3981 13.8745 26.3973 13.8745H20.9245C20.6605 13.8745 20.4467 14.0861 20.4467 14.3471V14.3497V19.1708C20.4467 19.4319 20.6607 19.6435 20.9246 19.6435Z" fill="#2496ED"/>
<path d="M28.4904 19.6435H33.9632C34.2276 19.6435 34.4422 19.4324 34.4437 19.1709V14.3497C34.4437 14.0872 34.2286 13.8745 33.9632 13.8745H28.4904C28.2265 13.8745 28.0126 14.0861 28.0126 14.3471V14.3497V19.1708C28.0126 19.4319 28.2265 19.6435 28.4904 19.6435Z" fill="#2496ED"/>
<path d="M13.2681 12.7075H18.7409C19.0052 12.706 19.2187 12.4937 19.2187 12.2323V7.41117C19.2187 7.15013 19.0048 6.9386 18.7409 6.9386H13.2681C13.0038 6.9386 12.7891 7.1497 12.7876 7.41117V12.2323C12.7891 12.4942 13.0033 12.706 13.2681 12.7075Z" fill="#2496ED"/>
<path d="M20.9246 12.7075H26.3974C26.6617 12.706 26.8752 12.4937 26.8752 12.2323V7.41117C26.8752 7.15013 26.6613 6.9386 26.3974 6.9386H20.9246C20.6607 6.9386 20.4468 7.15021 20.4468 7.41117V12.2323C20.4468 12.4937 20.6603 12.706 20.9246 12.7075Z" fill="#2496ED"/>
<path d="M28.4904 12.7075H33.9632C34.228 12.706 34.4422 12.4942 34.4437 12.2323V7.41117C34.4422 7.1497 34.2276 6.9386 33.9632 6.9386H28.4904C28.2265 6.9386 28.0126 7.15021 28.0126 7.41117V12.2323C28.0126 12.4937 28.2261 12.706 28.4904 12.7075Z" fill="#2496ED"/>
<path d="M28.4904 5.769H33.9632C34.2276 5.769 34.4422 5.55781 34.4437 5.29642V0.472576C34.4422 0.211102 34.2276 0 33.9632 0H28.4904C28.2265 0 28.0126 0.211531 28.0126 0.472576V5.29634C28.0126 5.55738 28.2265 5.769 28.4904 5.769Z" fill="#2496ED"/>
<path d="M36.123 19.6435H41.5958C41.8601 19.6435 42.0748 19.4324 42.0763 19.1709V14.3497C42.0763 14.0872 41.8612 13.8745 41.5958 13.8745H36.123C35.8591 13.8745 35.6451 14.0861 35.6451 14.3471V14.3497V19.1708C35.6451 19.4319 35.8591 19.6435 36.123 19.6435Z" fill="#2496ED"/>
</svg>
