<svg width="110" height="43" viewBox="0 0 110 43" fill="none" xmlns="http://www.w3.org/2000/svg">
<path d="M34.1169 33.5V9.96948H35.4223V13.6709C35.5764 13.5067 35.7188 13.3324 35.8484 13.1491C36.9386 10.9375 39.2382 9.54166 41.7488 9.56923C44.7251 9.48243 47.1437 10.5597 48.565 13.1491C49.4695 14.7578 49.9672 16.5546 50.0166 18.3897C50.066 20.2248 49.6657 22.0448 48.8491 23.6977C47.5249 26.5996 44.2541 28.0424 40.7525 27.5125C39.6627 27.4219 38.6136 27.0659 37.7007 26.4769C36.7879 25.888 36.0405 25.0849 35.5267 24.1409V33.499L34.1169 33.5ZM35.4223 18.2932L35.7147 21.0562C36.2306 24.2011 38.1323 26.0595 41.118 26.4087C42.5201 26.6341 43.9588 26.3771 45.1888 25.6814C46.4188 24.9858 47.364 23.8947 47.8632 22.594C49.0245 19.8881 48.9389 16.8249 47.6335 14.1824C47.1006 13.0164 46.1941 12.0517 45.0508 11.4341C43.9076 10.8164 42.5898 10.5794 41.2966 10.7588C40.0827 10.8451 38.9264 11.2989 37.9884 12.0572C37.0504 12.8155 36.3773 13.8406 36.0624 14.9901C35.7844 16.0779 35.5707 17.1804 35.4223 18.2922V18.2932ZM76.6708 21.4912C76.4728 23.148 75.6662 24.678 74.4008 25.7969C73.1355 26.9157 71.4977 27.5471 69.7919 27.5737C64.3175 27.8433 61.7485 24.2889 61.3402 20.1873C61.0562 17.9599 61.426 15.6995 62.4064 13.6698C63.0888 12.2775 64.2068 11.1337 65.5984 10.4042C66.9901 9.67462 68.5832 9.3972 70.1469 9.61211C71.6335 9.73565 73.0427 10.3132 74.175 11.2629C75.3074 12.2127 76.1056 13.4866 76.4567 14.9043C76.7348 16.1958 76.9395 17.5014 77.0697 18.815H62.6926C62.4263 22.5337 64.47 25.5234 67.3669 26.2443C70.9751 27.1122 74.059 25.5837 75.1785 22.2295C75.427 21.3687 75.8802 21.2472 76.6802 21.4912H76.6708ZM62.6821 17.6244H75.5419C75.4615 13.6627 72.9384 10.7833 69.5162 10.7506C65.6522 10.6893 62.8503 13.4534 62.6821 17.6244ZM79.3286 21.578H80.5891C80.6354 22.486 80.937 23.3638 81.4606 24.1151C81.9842 24.8663 82.7096 25.4617 83.557 25.8359C84.621 26.304 85.7794 26.5316 86.9458 26.5015C88.1122 26.4715 89.2566 26.1846 90.2939 25.6623C90.8594 25.4133 91.3331 25.0007 91.6509 24.4801C91.9688 23.9595 92.1156 23.356 92.0714 22.7512C92.1039 22.1679 91.941 21.5902 91.6075 21.1056C91.2739 20.621 90.7878 20.2559 90.2229 20.0658C88.8361 19.5614 87.3615 19.2837 85.9485 18.8405C84.4782 18.4312 83.0405 17.9173 81.647 17.3028C79.3704 16.2164 79.2294 11.9851 81.8067 10.6454C83.1265 9.91732 84.6117 9.5239 86.1268 9.50107C87.642 9.47824 89.1388 9.82673 90.4809 10.5147C92.1455 11.4133 93.0656 13.2277 92.792 15.0687H91.7111C91.7111 15.0176 91.6129 14.9727 91.6129 14.9206C91.4792 11.5511 88.5823 10.4974 85.4723 10.7935C84.5324 10.8956 83.6416 11.1733 82.8062 11.5838C82.3039 11.808 81.8854 12.1794 81.6085 12.6464C81.3316 13.1134 81.21 13.653 81.2606 14.1906C81.2616 14.7285 81.4331 15.253 81.7514 15.6918C82.0696 16.1306 82.5191 16.4622 83.038 16.6411C84.3956 17.1282 85.8368 17.4406 87.2414 17.8225L90.6354 18.6904C91.4069 18.938 92.0833 19.4087 92.5752 20.0402C93.0671 20.6718 93.3513 21.4345 93.3903 22.2274C93.6619 24.0092 92.7324 25.7603 91.0887 26.5721C88.1207 28.2139 83.2323 27.78 81.0548 25.7041C79.9406 24.6085 79.3192 23.1208 79.3317 21.577L79.3286 21.578ZM109.384 15.0697H108.202C108.202 14.9135 108.139 14.7634 108.122 14.6439C108.103 13.7775 107.78 12.9438 107.207 12.2826C106.634 11.6213 105.846 11.1727 104.975 11.012C103.332 10.5513 101.579 10.6338 99.9894 11.2468C99.3607 11.4228 98.8071 11.7929 98.4114 12.302C98.0157 12.8111 97.7992 13.4317 97.7942 14.0711C97.7717 14.6989 97.9717 15.3151 98.3602 15.8154C98.7488 16.3157 99.3022 16.6694 99.9267 16.8168L105.33 18.1727C105.914 18.3098 106.49 18.4809 107.053 18.6853C108.776 19.298 109.946 20.8622 109.998 22.6501C110.024 23.5253 109.778 24.3876 109.294 25.1238C108.809 25.86 108.108 26.4357 107.283 26.7752C106.029 27.3322 104.67 27.6269 103.292 27.6405C101.915 27.654 100.55 27.3861 99.2845 26.8539C98.2439 26.4152 97.3658 25.6753 96.7683 24.7339C96.1708 23.7924 95.8827 22.6946 95.9427 21.5882H97.0977C97.5321 23.6355 98.9701 25.3406 100.943 26.1473C102.916 26.9539 105.168 26.7558 106.962 25.6204C107.501 25.3467 107.947 24.9279 108.25 24.4136C108.552 23.8994 108.698 23.3111 108.669 22.7185C108.696 22.1349 108.527 21.5586 108.188 21.0771C107.85 20.5956 107.36 20.2352 106.793 20.0505C105.406 19.5461 103.932 19.2775 102.519 18.8252C101.04 18.4222 99.5938 17.9141 98.1911 17.3048C95.9688 16.2358 95.7912 12.0392 98.3248 10.7006C99.6608 9.9419 101.175 9.53432 102.72 9.5175C104.265 9.50068 105.788 9.87519 107.141 10.6046C107.915 11.0562 108.538 11.718 108.934 12.5095C109.33 13.301 109.482 14.188 109.372 15.0626L109.384 15.0697ZM31.9687 27.149C31.5034 27.321 30.9897 27.3205 30.5247 27.1477C30.0597 26.9748 29.6755 26.6415 29.4446 26.2106L24.8496 19.9974L24.1833 19.1295L18.851 26.2198C18.6337 26.6321 18.2702 26.953 17.8286 27.1225C17.387 27.292 16.8973 27.2985 16.4512 27.1408L23.3207 18.1299L16.9295 9.98786C17.8777 9.65295 18.9346 10.0165 19.4619 10.8558L24.224 17.1456L29.0143 10.8803C29.2333 10.475 29.5969 10.1625 30.0361 10.0023C30.4754 9.84211 30.9595 9.84533 31.3964 10.0113L28.9162 13.2287L25.5566 17.5039C25.4633 17.5854 25.3887 17.6851 25.3377 17.7967C25.2866 17.9082 25.2602 18.0291 25.2602 18.1513C25.2602 18.2735 25.2866 18.3944 25.3377 18.5059C25.3887 18.6175 25.4633 18.7172 25.5566 18.7987L31.9551 27.149H31.9687ZM61.1365 9.90107V11.1264C60.2377 11.0687 59.3364 11.196 58.491 11.5C57.6455 11.8039 56.8746 12.2779 56.2281 12.8911C55.5816 13.5044 55.0738 14.2434 54.7374 15.0605C54.401 15.8775 54.2436 16.7544 54.2754 17.6346V27.1929H53.0044V9.97765H54.2576V13.5054C55.7948 10.9324 58.1675 9.97765 61.1449 9.90822L61.1365 9.90107ZM0.00208861 18.0175L0.561844 15.3148C2.09908 9.9705 8.365 7.74662 12.6759 11.0569C15.2001 12.9949 15.8298 15.7406 15.7066 18.8344H1.48607C1.25632 24.3604 5.33438 27.6973 10.5508 25.9941C12.2697 25.3815 13.5636 23.9847 13.9897 22.2488C14.2654 21.3809 14.7207 21.2319 15.5541 21.483C15.4151 22.541 15.0326 23.5544 14.4353 24.447C13.838 25.3396 13.0416 26.0881 12.1058 26.6364C10.5597 27.4631 8.78588 27.7906 7.03794 27.5722C5.29 27.3538 3.65745 26.6006 2.37374 25.4203C1.10385 24.0245 0.337315 22.2601 0.187977 20.3966C0.187977 20.0903 0.0835455 19.8044 0.0104432 19.5287C0.00348106 19.0134 0 18.5097 0 18.0175H0.00208861ZM1.50382 17.6438H14.3636C14.2832 13.6382 11.6974 10.7965 8.24908 10.77C4.41016 10.7189 1.6636 13.4983 1.49442 17.6265L1.50382 17.6438Z" fill="white"/>
</svg>
