<svg width="112" height="44" viewBox="0 0 112 44" fill="none" xmlns="http://www.w3.org/2000/svg">
<path d="M34.7372 34V10.4695H36.0663V14.1709C36.2233 14.0067 36.3682 13.8324 36.5001 13.6491C37.6102 11.4375 39.9516 10.0417 42.5078 10.0692C45.5382 9.98243 48.0009 11.0597 49.448 13.6491C50.3689 15.2578 50.8757 17.0546 50.926 18.8897C50.9763 20.7248 50.5687 22.5448 49.7372 24.1977C48.389 27.0996 45.0587 28.5424 41.4934 28.0125C40.3839 27.9219 39.3156 27.5659 38.3862 26.9769C37.4568 26.388 36.6958 25.5849 36.1726 24.6409V33.999L34.7372 34ZM36.0663 18.7932L36.364 21.5562C36.8893 24.7011 38.8256 26.5595 41.8656 26.9087C43.2932 27.1341 44.758 26.8771 46.0104 26.1814C47.2627 25.4858 48.2251 24.3947 48.7335 23.094C49.9159 20.3881 49.8287 17.3249 48.4996 14.6824C47.957 13.5164 47.034 12.5517 45.8699 11.9341C44.7059 11.3164 43.3641 11.0794 42.0474 11.2588C40.8115 11.3451 39.6342 11.7989 38.6791 12.5572C37.7241 13.3155 37.0387 14.3406 36.7181 15.4901C36.4351 16.5779 36.2174 17.6804 36.0663 18.7922V18.7932ZM78.0648 21.9912C77.8632 23.648 77.0419 25.178 75.7536 26.2969C74.4652 27.4157 72.7976 28.0471 71.0608 28.0737C65.4869 28.3433 62.8712 24.7889 62.4555 20.6873C62.1663 18.4599 62.5429 16.1995 63.5411 14.1698C64.2359 12.7775 65.3742 11.6337 66.7911 10.9042C68.2081 10.1746 69.8302 9.8972 71.4223 10.1121C72.9359 10.2357 74.3707 10.8132 75.5237 11.7629C76.6766 12.7127 77.4894 13.9866 77.8468 15.4043C78.13 16.6958 78.3384 18.0014 78.471 19.315H63.8324C63.5613 23.0337 65.6422 26.0234 68.5918 26.7443C72.2655 27.6122 75.4055 26.0837 76.5453 22.7295C76.7984 21.8687 77.2599 21.7472 78.0744 21.9912H78.0648ZM63.8218 18.1244H76.9154C76.8335 14.1627 74.2645 11.2833 70.7801 11.2506C66.8459 11.1893 63.993 13.9534 63.8218 18.1244ZM80.7709 22.078H82.0543C82.1015 22.986 82.4085 23.8638 82.9417 24.6151C83.4748 25.3663 84.2134 25.9617 85.0762 26.3359C86.1596 26.804 87.339 27.0316 88.5266 27.0015C89.7142 26.9715 90.8795 26.6846 91.9356 26.1623C92.5114 25.9133 92.9937 25.5007 93.3173 24.9801C93.641 24.4595 93.7904 23.856 93.7454 23.2512C93.7785 22.6679 93.6127 22.0902 93.2731 21.6056C92.9334 21.121 92.4385 20.7559 91.8633 20.5658C90.4513 20.0614 88.9499 19.7837 87.5112 19.3405C86.0142 18.9312 84.5504 18.4173 83.1315 17.8028C80.8135 16.7164 80.6699 12.4851 83.2941 11.1454C84.6379 10.4173 86.1501 10.0239 87.6927 10.0011C89.2354 9.97824 90.7595 10.3267 92.126 11.0147C93.8209 11.9133 94.7577 13.7277 94.4791 15.5687H93.3785C93.3785 15.5176 93.2786 15.4727 93.2786 15.4206C93.1425 12.0511 90.1929 10.9974 87.0264 11.2935C86.0694 11.3956 85.1624 11.6733 84.3117 12.0838C83.8004 12.308 83.3743 12.6794 83.0923 13.1464C82.8104 13.6134 82.6866 14.153 82.738 14.6906C82.7391 15.2285 82.9137 15.753 83.2377 16.1918C83.5618 16.6306 84.0195 16.9622 84.5478 17.1411C85.9301 17.6282 87.3974 17.9406 88.8276 18.3225L92.2833 19.1904C93.0688 19.438 93.7575 19.9087 94.2583 20.5402C94.7592 21.1718 95.0486 21.9345 95.0883 22.7274C95.3648 24.5092 94.4185 26.2603 92.7448 27.0721C89.7229 28.7139 84.7456 28.28 82.5286 26.2041C81.394 25.1085 80.7614 23.6208 80.7741 22.077L80.7709 22.078ZM111.373 15.5697H110.169C110.169 15.4135 110.105 15.2634 110.087 15.1439C110.068 14.2775 109.739 13.4438 109.156 12.7826C108.573 12.1213 107.77 11.6727 106.884 11.512C105.211 11.0513 103.426 11.1338 101.807 11.7468C101.167 11.9228 100.604 12.2929 100.201 12.802C99.7978 13.3111 99.5774 13.9317 99.5723 14.5711C99.5494 15.1989 99.753 15.8151 100.149 16.3154C100.544 16.8157 101.108 17.1694 101.744 17.3168L107.245 18.6727C107.84 18.8098 108.426 18.9809 109 19.1853C110.754 19.798 111.945 21.3622 111.998 23.1501C112.024 24.0253 111.774 24.8876 111.281 25.6238C110.788 26.36 110.074 26.9357 109.234 27.2752C107.957 27.8322 106.573 28.1269 105.17 28.1405C103.768 28.154 102.378 27.8861 101.09 27.3539C100.03 26.9152 99.1361 26.1753 98.5277 25.2339C97.9194 24.2924 97.626 23.1946 97.6871 22.0882H98.8631C99.3054 24.1355 100.77 25.8406 102.778 26.6473C104.787 27.4539 107.08 27.2558 108.907 26.1204C109.455 25.8467 109.91 25.4279 110.218 24.9136C110.526 24.3994 110.674 23.8111 110.645 23.2185C110.672 22.6349 110.5 22.0586 110.155 21.5771C109.811 21.0956 109.312 20.7352 108.735 20.5505C107.323 20.0461 105.821 19.7775 104.383 19.3252C102.877 18.9222 101.405 18.4141 99.9764 17.8048C97.7136 16.7358 97.5329 12.5392 100.112 11.2006C101.473 10.4419 103.015 10.0343 104.588 10.0175C106.161 10.0007 107.711 10.3752 109.089 11.1046C109.877 11.5562 110.511 12.218 110.914 13.0095C111.318 13.801 111.472 14.688 111.36 15.5626L111.373 15.5697ZM32.55 27.649C32.0762 27.821 31.5532 27.8205 31.0797 27.6477C30.6062 27.4748 30.215 27.1415 29.9799 26.7106L25.3014 20.4974L24.623 19.6295L19.1938 26.7198C18.9725 27.1321 18.6024 27.453 18.1528 27.6225C17.7031 27.792 17.2046 27.7985 16.7503 27.6408L23.7447 18.6299L17.2373 10.4879C18.2028 10.153 19.2788 10.5165 19.8158 11.3558L24.6645 17.6456L29.5419 11.3803C29.7648 10.975 30.1351 10.6625 30.5823 10.5023C31.0294 10.3421 31.5224 10.3453 31.9673 10.5113L29.4419 13.7287L26.0212 18.0039C25.9263 18.0854 25.8503 18.1851 25.7983 18.2967C25.7463 18.4082 25.7194 18.5291 25.7194 18.6513C25.7194 18.7735 25.7463 18.8944 25.7983 19.0059C25.8503 19.1175 25.9263 19.2172 26.0212 19.2987L32.5361 27.649H32.55ZM62.2481 10.4011V11.6264C61.3329 11.5687 60.4153 11.696 59.5544 12C58.6936 12.3039 57.9087 12.7779 57.2504 13.3911C56.5922 14.0044 56.0751 14.7434 55.7326 15.5605C55.3902 16.3775 55.2299 17.2544 55.2622 18.1346V27.6929H53.9681V10.4777H55.2441V14.0054C56.8093 11.4324 59.2251 10.4777 62.2566 10.4082L62.2481 10.4011ZM0.00212659 18.5175L0.572059 15.8148C2.13725 10.4705 8.51709 8.24662 12.9064 11.5569C15.4764 13.4949 16.1176 16.2406 15.9921 19.3344H1.51309C1.27916 24.8604 5.43137 28.1973 10.7426 26.4941C12.4928 25.8815 13.8102 24.4847 14.2441 22.7488C14.5248 21.8809 14.9884 21.7319 15.8369 21.983C15.6954 23.041 15.3059 24.0544 14.6978 24.947C14.0896 25.8396 13.2787 26.5881 12.3259 27.1364C10.7517 27.9631 8.94562 28.2906 7.1659 28.0722C5.38618 27.8538 3.72395 27.1006 2.4169 25.9203C1.12392 24.5245 0.343448 22.7601 0.191395 20.8966C0.191395 20.5903 0.0850645 20.3044 0.010633 20.0287C0.00354435 19.5134 0 19.0097 0 18.5175H0.00212659ZM1.53116 18.1438H14.6247C14.5428 14.1382 11.9101 11.2965 8.39906 11.27C4.49034 11.2189 1.69385 13.9983 1.52159 18.1265L1.53116 18.1438Z" fill="black"/>
</svg>
