<svg width="112" height="44" viewBox="0 0 112 44" fill="none" xmlns="http://www.w3.org/2000/svg">
<path d="M34.7372 34.0001V10.4696H36.0663V14.171C36.2233 14.0069 36.3682 13.8325 36.5001 13.6492C37.6102 11.4376 39.9516 10.0418 42.5078 10.0693C45.5382 9.98256 48.0009 11.0598 49.448 13.6492C50.3689 15.2579 50.8757 17.0548 50.926 18.8898C50.9763 20.7249 50.5687 22.5449 49.7372 24.1979C48.389 27.0997 45.0587 28.5425 41.4934 28.0126C40.3839 27.922 39.3156 27.566 38.3862 26.9771C37.4568 26.3881 36.6958 25.585 36.1726 24.641V33.9991L34.7372 34.0001ZM36.0663 18.7934L36.364 21.5564C36.8893 24.7013 38.8256 26.5596 41.8656 26.9088C43.2932 27.1342 44.758 26.8772 46.0104 26.1816C47.2627 25.486 48.2251 24.3948 48.7335 23.0941C49.9159 20.3883 49.8287 17.3251 48.4996 14.6825C47.957 13.5166 47.034 12.5518 45.8699 11.9342C44.7059 11.3165 43.3641 11.0795 42.0474 11.2589C40.8115 11.3452 39.6342 11.7991 38.6791 12.5573C37.7241 13.3156 37.0387 14.3407 36.7181 15.4902C36.4351 16.578 36.2174 17.6805 36.0663 18.7923V18.7934ZM78.0648 21.9913C77.8632 23.6481 77.0419 25.1782 75.7536 26.297C74.4653 27.4158 72.7976 28.0472 71.0608 28.0738C65.487 28.3434 62.8712 24.7891 62.4555 20.6874C62.1664 18.46 62.5429 16.1996 63.5411 14.17C64.2359 12.7776 65.3742 11.6338 66.7912 10.9043C68.2081 10.1747 69.8302 9.89733 71.4223 10.1122C72.9359 10.2358 74.3707 10.8133 75.5237 11.763C76.6766 12.7128 77.4894 13.9867 77.8468 15.4044C78.13 16.6959 78.3384 18.0015 78.471 19.3151H63.8324C63.5613 23.0339 65.6422 26.0235 68.5918 26.7444C72.2655 27.6123 75.4055 26.0838 76.5453 22.7296C76.7984 21.8688 77.2599 21.7473 78.0744 21.9913H78.0648ZM63.8218 18.1246H76.9154C76.8335 14.1628 74.2645 11.2834 70.7801 11.2507C66.8459 11.1895 63.993 13.9535 63.8218 18.1246ZM80.7709 22.0781H82.0543C82.1015 22.9861 82.4085 23.864 82.9417 24.6152C83.4748 25.3664 84.2135 25.9618 85.0763 26.336C86.1596 26.8042 87.339 27.0317 88.5266 27.0016C89.7142 26.9716 90.8795 26.6847 91.9356 26.1624C92.5114 25.9135 92.9937 25.5008 93.3173 24.9802C93.641 24.4596 93.7904 23.8561 93.7454 23.2513C93.7785 22.6681 93.6127 22.0903 93.2731 21.6057C92.9334 21.1211 92.4385 20.7561 91.8633 20.5659C90.4513 20.0615 88.9499 19.7838 87.5112 19.3406C86.0142 18.9314 84.5504 18.4174 83.1315 17.8029C80.8135 16.7165 80.6699 12.4852 83.2941 11.1456C84.6379 10.4174 86.1501 10.024 87.6928 10.0012C89.2354 9.97836 90.7595 10.3268 92.126 11.0149C93.8209 11.9134 94.7577 13.7278 94.4791 15.5688H93.3786C93.3786 15.5178 93.2786 15.4728 93.2786 15.4208C93.1425 12.0512 90.1929 10.9975 87.0264 11.2936C86.0694 11.3957 85.1624 11.6734 84.3117 12.0839C83.8004 12.3082 83.3743 12.6795 83.0923 13.1465C82.8104 13.6135 82.6866 14.1531 82.738 14.6907C82.7391 15.2287 82.9137 15.7531 83.2377 16.1919C83.5618 16.6307 84.0195 16.9624 84.5478 17.1413C85.9301 17.6283 87.3975 17.9408 88.8276 18.3226L92.2833 19.1906C93.0688 19.4381 93.7575 19.9088 94.2584 20.5404C94.7592 21.1719 95.0486 21.9346 95.0884 22.7275C95.3648 24.5093 94.4185 26.2604 92.7448 27.0722C89.7229 28.7141 84.7456 28.2801 82.5286 26.2043C81.394 25.1087 80.7614 23.621 80.7741 22.0771L80.7709 22.0781ZM111.373 15.5698H110.169C110.169 15.4136 110.105 15.2635 110.087 15.1441C110.068 14.2777 109.739 13.4439 109.156 12.7827C108.573 12.1214 107.77 11.6728 106.884 11.5121C105.211 11.0514 103.426 11.1339 101.807 11.747C101.167 11.9229 100.604 12.2931 100.201 12.8021C99.7978 13.3112 99.5774 13.9319 99.5723 14.5712C99.5494 15.199 99.753 15.8152 100.149 16.3155C100.544 16.8158 101.108 17.1695 101.744 17.3169L107.245 18.6729C107.84 18.8099 108.426 18.9811 109 19.1854C110.754 19.7981 111.945 21.3624 111.998 23.1503C112.024 24.0254 111.774 24.8877 111.281 25.6239C110.788 26.3601 110.074 26.9358 109.234 27.2754C107.957 27.8324 106.573 28.1271 105.17 28.1406C103.768 28.1541 102.378 27.8862 101.09 27.354C100.03 26.9153 99.1361 26.1754 98.5277 25.234C97.9194 24.2925 97.626 23.1947 97.6871 22.0883H98.8631C99.3054 24.1356 100.77 25.8408 102.778 26.6474C104.787 27.4541 107.08 27.256 108.907 26.1205C109.455 25.8468 109.91 25.4281 110.218 24.9138C110.526 24.3995 110.674 23.8112 110.645 23.2187C110.672 22.635 110.5 22.0587 110.155 21.5772C109.811 21.0957 109.312 20.7353 108.735 20.5506C107.323 20.0462 105.821 19.7777 104.383 19.3253C102.877 18.9224 101.405 18.4142 99.9764 17.805C97.7137 16.7359 97.5329 12.5393 100.112 11.2007C101.473 10.442 103.015 10.0344 104.588 10.0176C106.161 10.0008 107.711 10.3753 109.089 11.1047C109.877 11.5563 110.511 12.2181 110.914 13.0096C111.318 13.8011 111.472 14.6882 111.36 15.5627L111.373 15.5698ZM32.55 27.6491C32.0762 27.8211 31.5532 27.8207 31.0797 27.6478C30.6062 27.4749 30.215 27.1416 29.9799 26.7107L25.3014 20.4975L24.623 19.6296L19.1938 26.7199C18.9725 27.1322 18.6024 27.4531 18.1528 27.6226C17.7031 27.7921 17.2046 27.7986 16.7503 27.6409L23.7447 18.63L17.2373 10.488C18.2028 10.1531 19.2788 10.5166 19.8158 11.3559L24.6645 17.6457L29.5419 11.3804C29.7648 10.9751 30.1351 10.6627 30.5823 10.5024C31.0295 10.3422 31.5224 10.3454 31.9673 10.5115L29.4419 13.7289L26.0212 18.0041C25.9263 18.0855 25.8503 18.1852 25.7983 18.2968C25.7463 18.4083 25.7194 18.5292 25.7194 18.6514C25.7194 18.7737 25.7463 18.8945 25.7983 19.0061C25.8503 19.1176 25.9263 19.2174 26.0212 19.2988L32.5361 27.6491H32.55ZM62.2481 10.4012V11.6265C61.3329 11.5688 60.4153 11.6961 59.5544 12.0001C58.6936 12.3041 57.9087 12.778 57.2504 13.3913C56.5922 14.0045 56.0751 14.7436 55.7326 15.5606C55.3902 16.3776 55.2299 17.2546 55.2622 18.1348V27.693H53.9681V10.4778H55.2441V14.0056C56.8093 11.4325 59.2251 10.4778 62.2566 10.4083L62.2481 10.4012ZM0.00212659 18.5177L0.572059 15.8149C2.13725 10.4706 8.51709 8.24674 12.9064 11.557C15.4764 13.495 16.1176 16.2407 15.9921 19.3345H1.51309C1.27916 24.8605 5.43137 28.1974 10.7426 26.4942C12.4928 25.8816 13.8102 24.4848 14.2441 22.749C14.5248 21.8811 14.9884 21.732 15.8369 21.9832C15.6954 23.0411 15.3059 24.0545 14.6978 24.9471C14.0896 25.8397 13.2787 26.5883 12.3259 27.1365C10.7517 27.9632 8.94562 28.2908 7.1659 28.0723C5.38618 27.8539 3.72395 27.1007 2.4169 25.9204C1.12392 24.5246 0.343448 22.7602 0.191395 20.8968C0.191395 20.5904 0.0850645 20.3045 0.010633 20.0288C0.00354435 19.5135 0 19.0098 0 18.5177H0.00212659ZM1.53116 18.144H14.6247C14.5428 14.1383 11.9101 11.2967 8.39906 11.2701C4.49035 11.2191 1.69385 13.9984 1.52159 18.1266L1.53116 18.144Z" fill="white"/>
</svg>
