<svg width="30" height="44" viewBox="0 0 30 44" fill="none" xmlns="http://www.w3.org/2000/svg">
<path d="M7.33334 44C11.3813 44 14.6667 40.7147 14.6667 36.6667V29.3334H7.33334C3.28534 29.3334 0 32.6187 0 36.6667C0 40.7147 3.28534 44 7.33334 44Z" fill="#0ACF83"/>
<path d="M0 21.9999C0 17.952 3.28534 14.6666 7.33334 14.6666H14.6667V29.3333H7.33334C3.28534 29.3333 0 26.0479 0 21.9999Z" fill="#A259FF"/>
<path d="M0 7.33333C0 3.28533 3.28534 0 7.33334 0H14.6667V14.6667H7.33334C3.28534 14.6667 0 11.3813 0 7.33333Z" fill="#F24E1E"/>
<path d="M14.6667 0H22C26.048 0 29.3334 3.28533 29.3334 7.33333C29.3334 11.3813 26.048 14.6667 22 14.6667H14.6667V0Z" fill="#FF7262"/>
<path d="M29.3334 21.9999C29.3334 26.0479 26.048 29.3333 22 29.3333C17.952 29.3333 14.6667 26.0479 14.6667 21.9999C14.6667 17.952 17.952 14.6666 22 14.6666C26.048 14.6666 29.3334 17.952 29.3334 21.9999Z" fill="#1ABCFE"/>
</svg>
