<svg width="44" height="44" viewBox="0 0 44 44" fill="none" xmlns="http://www.w3.org/2000/svg">
<path d="M43.1703 20.0399L23.9594 0.829785C22.8537 -0.276595 21.0594 -0.276595 19.9523 0.829785L15.9631 4.81908L21.0236 9.87969C22.1996 9.4823 23.5481 9.74889 24.4855 10.6863C25.4274 11.6298 25.6921 12.9898 25.2851 14.1696L30.1621 19.0468C31.342 18.6403 32.7034 18.9033 33.6458 19.8472C34.9629 21.1638 34.9629 23.2977 33.6458 24.6151C32.3284 25.9328 30.1945 25.9328 28.8764 24.6151C27.8857 23.6234 27.641 22.1685 28.1425 20.948L23.5944 16.3997L23.5938 28.3688C23.9235 28.5318 24.2247 28.7472 24.4855 29.0065C25.8026 30.3231 25.8026 32.4571 24.4855 33.7756C23.1681 35.0925 21.0332 35.0925 19.7177 33.7756C18.4006 32.4571 18.4006 30.3232 19.7177 29.0066C20.0333 28.6908 20.4084 28.4408 20.8213 28.2708V16.1902C20.4078 16.0214 20.0325 15.7712 19.7177 15.4544C18.7198 14.4578 18.4799 12.9936 18.9912 11.7683L14.0027 6.77918L0.830158 19.9511C-0.276719 21.0585 -0.276719 22.8531 0.830158 23.9596L20.0413 43.1701C21.1474 44.2766 22.9414 44.2766 24.0488 43.1701L43.1701 24.0488C44.2766 22.9419 44.2768 21.1463 43.1703 20.0399Z" fill="#DE4C36"/>
</svg>
