<svg width="44" height="44" viewBox="0 0 44 44" fill="none" xmlns="http://www.w3.org/2000/svg">
<path d="M22.0001 0C9.85134 0 0 10.0989 0 22.5569C0 32.5233 6.30368 40.9786 15.0451 43.9613C16.1445 44.17 16.5482 43.4719 16.5482 42.8761C16.5482 42.3383 16.5277 40.5612 16.5184 38.6764C10.3978 40.0409 9.1063 36.015 9.1063 36.015C8.10555 33.4077 6.66361 32.7146 6.66361 32.7146C4.66763 31.3145 6.81407 31.3431 6.81407 31.3431C9.02331 31.5024 10.1866 33.6677 10.1866 33.6677C12.1487 37.1163 15.3332 36.1192 16.5886 35.543C16.786 34.0849 17.3563 33.09 17.9854 32.5267C13.0989 31.9561 7.96199 30.022 7.96199 21.3789C7.96199 18.9163 8.82143 16.9039 10.2289 15.3243C10.0004 14.7561 9.24744 12.4619 10.442 9.35483C10.442 9.35483 12.2894 8.74855 16.4936 11.667C18.2483 11.1671 20.1304 10.9166 22.0001 10.9081C23.8698 10.9166 25.7532 11.1671 27.5115 11.667C31.7106 8.74855 33.5555 9.35483 33.5555 9.35483C34.7529 12.4619 33.9996 14.7561 33.7711 15.3243C35.1817 16.9039 36.0352 18.9161 36.0352 21.3789C36.0352 30.0425 30.8886 31.9503 25.9898 32.5086C26.7788 33.2087 27.4819 34.5815 27.4819 36.6858C27.4819 39.7039 27.4564 42.1331 27.4564 42.8761C27.4564 43.4763 27.8524 44.1797 28.9677 43.9582C37.7043 40.9722 44 32.52 44 22.5569C44 10.0989 34.15 0 22.0001 0Z" fill="#161614"/>
<path d="M8.23976 32.1329C8.19145 32.2449 8.01925 32.2785 7.86275 32.2017C7.70315 32.1281 7.61342 31.9752 7.66519 31.8627C7.71264 31.7474 7.88484 31.7152 8.04409 31.7927C8.20404 31.8661 8.29514 32.0204 8.23976 32.1329V32.1329ZM9.32195 33.1229C9.21704 33.2226 9.01189 33.1763 8.87265 33.0187C8.72874 32.8614 8.70183 32.6512 8.80829 32.5498C8.91647 32.4502 9.11541 32.4968 9.25966 32.6542C9.40356 32.8133 9.43151 33.0222 9.32178 33.123L9.32195 33.1229ZM10.0644 34.3895C9.92947 34.4856 9.70896 34.3956 9.57283 34.1949C9.43807 33.9945 9.43807 33.7539 9.57576 33.6575C9.71241 33.5611 9.92947 33.6478 10.0675 33.8468C10.2021 34.0508 10.2021 34.2914 10.0642 34.3897L10.0644 34.3895ZM11.3198 35.8567C11.1992 35.9929 10.9425 35.9564 10.7544 35.7703C10.5622 35.5885 10.5085 35.3303 10.6295 35.1939C10.7515 35.0574 11.0098 35.0958 11.1992 35.2803C11.3902 35.4618 11.4485 35.7218 11.32 35.8567H11.3198ZM12.9424 36.352C12.8895 36.5286 12.642 36.6089 12.3929 36.5339C12.1441 36.4566 11.9812 36.2496 12.0314 36.0711C12.0832 35.8933 12.3316 35.8096 12.5827 35.8899C12.8311 35.9669 12.9944 36.1723 12.9426 36.352H12.9424ZM14.7893 36.562C14.7955 36.7481 14.5842 36.9024 14.3226 36.9057C14.0595 36.9116 13.8467 36.761 13.844 36.5781C13.844 36.3902 14.0505 36.2374 14.3135 36.2329C14.575 36.2276 14.7893 36.3771 14.7893 36.562V36.562ZM16.6034 36.4907C16.6348 36.6722 16.453 36.8587 16.1933 36.9082C15.9379 36.956 15.7016 36.844 15.669 36.6641C15.6372 36.478 15.8225 36.2917 16.0774 36.2434C16.3376 36.197 16.5703 36.3062 16.6034 36.4907" fill="#161614"/>
</svg>
