<svg width="39" height="44" viewBox="0 0 39 44" fill="none" xmlns="http://www.w3.org/2000/svg">
<path fill-rule="evenodd" clip-rule="evenodd" d="M23.244 5.04225L32.2545 10.2661C32.5146 9.98969 32.8132 9.75249 33.1408 9.56181C35.0095 8.48308 37.393 9.12356 38.4785 11C39.5528 12.8764 38.915 15.2696 37.0462 16.3595C36.7209 16.5476 36.3705 16.6877 36.0055 16.7756V27.227C36.3665 27.3151 36.7131 27.4542 37.035 27.6403C38.915 28.7302 39.5528 31.1236 38.4674 33C37.393 34.8763 34.9984 35.5168 33.1296 34.4382C32.7675 34.2296 32.4414 33.9638 32.1637 33.6509L23.208 38.8426C23.3392 39.2413 23.4058 39.6586 23.4053 40.0785C23.4053 42.2358 21.6598 44 19.5 44C17.3402 44 15.5947 42.247 15.5947 40.0785C15.5947 39.6931 15.6498 39.3207 15.7527 38.9691L6.74459 33.7468C6.4873 34.0177 6.19298 34.2505 5.87044 34.4382C3.99052 35.5168 1.60696 34.8763 0.532632 33C-0.541542 31.1236 0.0963204 28.7302 1.96497 27.6403C2.28688 27.4542 2.63353 27.315 2.9945 27.2269V16.7756C2.62955 16.6877 2.27907 16.5476 1.95384 16.3595C0.0850469 15.2809 -0.552815 12.8764 0.521511 11C1.59584 9.12356 3.99037 8.48308 5.85917 9.56181C6.18505 9.75147 6.4821 9.98715 6.74124 10.2616L15.7543 5.03643C15.6481 4.67435 15.5943 4.29878 15.5947 3.92131C15.5947 1.753 17.3402 0 19.5 0C21.6598 0 23.4053 1.75285 23.4053 3.92131C23.4053 4.31107 23.349 4.68721 23.244 5.04225ZM22.3053 6.65176L31.3372 11.8878C31.1934 12.3926 31.1522 12.9213 31.216 13.4424C31.2797 13.9636 31.4472 14.4665 31.7085 14.9213C32.2583 15.8816 33.1539 16.5183 34.148 16.7664V27.2309C34.0972 27.2432 34.0468 27.2569 33.9967 27.2712L22.2003 6.75655C22.2359 6.72228 22.271 6.68725 22.3053 6.65176ZM16.8022 6.75884L5.00589 27.2732C4.95489 27.2584 4.90359 27.2446 4.85203 27.2319V16.7664C5.84607 16.5183 6.74169 15.8816 7.2915 14.9213C7.55329 14.4656 7.72095 13.9616 7.78448 13.4394C7.848 12.9173 7.80609 12.3876 7.66124 11.882L16.6906 6.64748C16.727 6.68526 16.7642 6.72259 16.8022 6.75884ZM20.5912 7.68811L32.3848 28.1979C32.1146 28.4567 31.883 28.7533 31.6972 29.0785C31.5119 29.4018 31.3733 29.7498 31.2856 30.1123H7.71471C7.62692 29.7498 7.48822 29.4018 7.30278 29.0785C7.11631 28.7556 6.88519 28.4608 6.61632 28.203L18.4121 7.68903C18.7658 7.79128 19.132 7.84298 19.5 7.84261C19.8789 7.84261 20.245 7.78877 20.5912 7.68811ZM22.3881 37.4368L31.3615 32.2347C31.3346 32.1498 31.3105 32.064 31.2894 31.9774H7.70968C7.69719 32.0284 7.68363 32.0788 7.66916 32.1292L16.6864 37.3568C17.0505 36.9766 17.4875 36.6743 17.971 36.4682C18.4546 36.262 18.9747 36.1563 19.5 36.1572C20.0437 36.1563 20.5816 36.2696 21.079 36.49C21.5764 36.7104 22.0223 37.0329 22.3881 37.4368Z" fill="#E535AB"/>
</svg>
