<svg width="33" height="44" viewBox="0 0 33 44" fill="none" xmlns="http://www.w3.org/2000/svg">
<path d="M10.628 34.0278C10.628 34.0278 8.91821 35.0055 11.8449 35.3364C15.3906 35.7341 17.2026 35.6771 21.11 34.9498C21.11 34.9498 22.1374 35.5832 23.5719 36.1319C14.8128 39.8235 3.74806 35.918 10.628 34.0278ZM9.55767 29.2104C9.55767 29.2104 7.63992 30.6064 10.5688 30.9043C14.3564 31.2885 17.3475 31.32 22.5233 30.3399C22.5233 30.3399 23.2392 31.0536 24.3649 31.4439C13.7744 34.4892 1.97865 31.6841 9.55767 29.2104Z" fill="#5382A1"/>
<path d="M18.5809 21.0388C20.7392 23.4823 18.0139 25.6811 18.0139 25.6811C18.0139 25.6811 23.494 22.8992 20.9772 19.4154C18.6267 16.1668 16.8239 14.5525 26.5826 8.98706C26.5826 8.98706 11.2648 12.7491 18.5809 21.0387" fill="#E76F00"/>
<path d="M30.1657 37.5909C30.1657 37.5909 31.431 38.616 28.7721 39.4092C23.7162 40.9154 7.7288 41.3702 3.28752 39.4692C1.69106 38.7864 4.68499 37.8386 5.6267 37.6396C6.60883 37.4301 7.17018 37.4692 7.17018 37.4692C5.39467 36.2392 -4.30587 39.8843 2.24282 40.928C20.1019 43.7761 34.798 39.6457 30.1657 37.5909ZM11.4502 24.2192C11.4502 24.2192 3.3181 26.1186 8.5705 26.8082C10.7882 27.1002 15.2091 27.0342 19.3271 26.6948C22.6926 26.4158 26.072 25.8222 26.072 25.8222C26.072 25.8222 24.8853 26.322 24.0268 26.8984C15.7686 29.0342 -0.184584 28.0406 4.40814 25.8559C8.29222 24.0097 11.4503 24.2192 11.4503 24.2192H11.4502ZM26.0384 32.2377C34.4334 27.948 30.5519 23.8258 27.8427 24.3812C27.1786 24.517 26.8826 24.6347 26.8826 24.6347C26.8826 24.6347 27.1291 24.2551 27.5999 24.0907C32.9594 22.2378 37.0814 29.5556 25.8697 32.4539C25.8697 32.454 25.9997 32.3399 26.0384 32.2377Z" fill="#5382A1"/>
<path d="M20.9772 0.000127394C20.9772 0.000127394 25.6264 4.57363 16.5677 11.606C9.30359 17.2473 14.9112 20.4638 16.5647 24.1388C12.3245 20.3768 9.21265 17.065 11.3004 13.9828C14.3644 9.4581 22.853 7.26447 20.9772 0" fill="#E76F00"/>
<path d="M12.2751 43.8617C20.3331 44.369 32.7069 43.5803 33 39.8309C33 39.8309 32.4367 41.2524 26.3405 42.3811C19.4629 43.6538 10.9804 43.5052 5.94922 42.6895C5.94935 42.6895 6.97915 43.5278 12.2752 43.8617" fill="#5382A1"/>
</svg>
