<svg width="44" height="44" viewBox="0 0 44 44" fill="none" xmlns="http://www.w3.org/2000/svg">
<path d="M44 0H0V44H44V0Z" fill="#F7DF1E"/>
<path d="M29.5568 34.3752C30.4431 35.8223 31.5962 36.886 33.6356 36.886C35.3488 36.886 36.4432 36.0297 36.4432 34.8466C36.4432 33.4288 35.3187 32.9267 33.433 32.1018L32.3994 31.6583C29.4157 30.3872 27.4336 28.7949 27.4336 25.4285C27.4336 22.3276 29.7964 19.9669 33.4889 19.9669C36.1177 19.9669 38.0076 20.8818 39.3695 23.2774L36.1498 25.3447C35.4409 24.0736 34.6762 23.5728 33.4889 23.5728C32.2778 23.5728 31.5103 24.3411 31.5103 25.3447C31.5103 26.5851 32.2785 27.0872 34.0525 27.8555L35.0862 28.2983C38.5992 29.8048 40.5827 31.3406 40.5827 34.7935C40.5827 38.5161 37.6584 40.5554 33.7312 40.5554C29.8914 40.5554 27.4106 38.7256 26.1968 36.3272L29.5568 34.3752ZM14.9509 34.7335C15.6004 35.8858 16.1913 36.8601 17.6119 36.8601C18.9703 36.8601 19.8272 36.3286 19.8272 34.262V20.203H23.9618V34.3179C23.9618 38.5992 21.4517 40.5477 17.7879 40.5477C14.4774 40.5477 12.5603 38.8345 11.5853 36.7711L14.9509 34.7335Z" fill="black"/>
</svg>
