<svg width="19" height="44" viewBox="0 0 19 44" fill="none" xmlns="http://www.w3.org/2000/svg">
<path d="M9.6324 0.120117L8.50359 2.32545C8.2498 2.73242 7.97487 3.09264 7.65103 3.42812C6.70161 4.40337 5.81663 5.44425 5.00216 6.54364C3.08952 9.15594 1.79945 12.057 0.878164 15.1945C0.325655 17.1111 0.02561 19.0772 0.0031395 21.0653C-0.089386 27.009 1.86951 32.1126 5.81903 36.3542C6.46146 37.0268 7.15549 37.6439 7.89424 38.1993C8.28549 38.1993 8.47054 37.8872 8.6318 37.5998C8.92546 37.067 9.12091 36.4818 9.2081 35.8743C9.34689 35.1552 9.43809 34.4362 9.39315 33.6937V33.3582C9.42487 33.2868 9.76986 0.28923 9.6324 0.120117Z" fill="#599636"/>
<path d="M9.63237 0.0473006C9.67864 -0.0489422 9.7249 0.0239274 9.77116 0.0706739C9.74869 0.551888 9.90995 0.980856 10.1624 1.39058C10.44 1.79755 10.8074 2.10965 11.1762 2.44512C13.225 4.29024 14.8376 6.51895 16.129 9.01163C17.8473 12.3664 18.7329 15.9617 18.984 19.7468C19.099 21.1121 18.569 25.9298 18.1553 27.3198C17.0265 31.01 14.9988 34.1021 12.3724 36.7859C11.7274 37.4321 11.0374 38.0316 10.3237 38.6077C10.1161 38.6077 10.0937 38.4152 10.0461 38.2722C9.95511 37.9662 9.88575 37.6538 9.83857 37.3373L9.37595 33.7433L9.63237 0.0473006Z" fill="#6CAC48"/>
<path d="M8.50356 39.6595C8.4573 39.1096 8.20351 38.6531 7.92726 38.198C8.20484 38.0784 8.41104 37.8405 8.5723 37.5752C8.71135 37.3239 8.82645 37.0592 8.91596 36.7846C9.23848 35.7782 9.30721 34.7223 9.39974 33.6939V33.071C9.51473 33.1673 9.53853 33.9812 9.53853 34.1022C9.60579 35.1892 9.74446 36.2701 9.95357 37.3373C10.0223 37.769 10.0686 38.1994 10.3237 38.583C10.3237 38.6311 10.3237 38.6792 10.3012 38.7507C9.88616 40.0211 9.77248 41.3149 9.70243 42.6334V43.1146C9.70243 43.6893 9.7249 43.5683 9.26624 43.7608C9.08118 43.8323 8.87498 43.8571 8.68993 44.0001C8.55115 44.0001 8.52868 43.8804 8.52868 43.7842L8.59741 42.9936V40.7883C8.61988 40.4033 8.55115 40.0211 8.50488 39.6609L8.50356 39.6595Z" fill="#C2BFBF"/>
</svg>
