<svg width="44" height="44" viewBox="0 0 44 44" fill="none" xmlns="http://www.w3.org/2000/svg">
<path d="M40.5286 34.031C38.1346 33.9702 36.2792 34.2141 34.723 34.8847C34.2741 35.0675 33.5558 35.0677 33.496 35.647C33.7354 35.8909 33.7653 36.2872 33.9748 36.6225C34.3343 37.2321 34.9623 38.0553 35.531 38.4823C36.1593 38.97 36.788 39.4576 37.4461 39.8845C38.6133 40.6162 39.9302 41.0429 41.0673 41.7746C41.7259 42.2011 42.3838 42.7503 43.0423 43.2075C43.3715 43.451 43.5808 43.8477 44 44V43.9087C43.7903 43.6341 43.7305 43.2379 43.5211 42.933C43.2222 42.6282 42.9226 42.3537 42.6233 42.0489C41.7555 40.8601 40.6782 39.8235 39.5112 38.97C38.5536 38.2992 36.4586 37.3847 36.0697 36.2566C36.0697 36.2566 36.0396 36.2263 36.0098 36.1958C36.6681 36.1348 37.4461 35.8909 38.0748 35.7079C39.0922 35.4334 40.0198 35.4945 41.0673 35.2201C41.546 35.0982 42.0249 34.9457 42.5036 34.7933V34.519C41.9652 33.9702 41.5761 33.2387 41.0074 32.7203C39.4812 31.3786 37.8052 30.0679 36.0697 28.9705C35.1419 28.3607 33.9447 27.9643 32.9572 27.4462C32.5984 27.2631 31.9997 27.1718 31.7904 26.8669C31.2515 26.1963 30.9522 25.3123 30.5633 24.5196C29.6957 22.8427 28.8575 20.9832 28.1093 19.2151C27.5709 18.026 27.2417 16.837 26.5832 15.7397C23.5009 10.557 20.1492 7.41696 15.0021 4.33771C13.8947 3.69761 12.578 3.42321 11.1715 3.088C10.4236 3.05733 9.67525 2.99653 8.9272 2.96587C8.44834 2.75244 7.96947 2.17332 7.55047 1.89891C5.84503 0.801296 1.44564 -1.57635 0.188799 1.56371C-0.619283 3.54516 1.38596 5.49613 2.07398 6.50246C2.58312 7.20354 3.24121 7.99609 3.60036 8.78881C3.80986 9.30678 3.86955 9.85594 4.07905 10.4046C4.55809 11.7456 5.00668 13.2397 5.63536 14.4898C5.96458 15.1299 6.32355 15.8005 6.74256 16.3798C6.98199 16.715 7.40082 16.8676 7.49078 17.4163C7.07195 18.026 7.04185 18.9407 6.80224 19.7028C5.72497 23.1477 6.14415 27.4157 7.67018 29.946C8.14887 30.7079 9.28617 32.3851 10.8124 31.7447C12.1592 31.196 11.8599 29.4583 12.2486 27.934C12.3388 27.5678 12.2789 27.3242 12.4583 27.0803V27.1415C12.8773 27.9948 13.2961 28.8182 13.6852 29.6717C14.613 31.1654 16.2288 32.7203 17.5755 33.757C18.2939 34.3054 18.8624 35.2506 19.7603 35.586V35.4943H19.7003C19.5207 35.2199 19.2513 35.0982 19.0121 34.8846C18.4735 34.3361 17.8748 33.6653 17.4559 33.0555C16.1993 31.3481 15.0917 29.4581 14.1042 27.507C13.6255 26.5622 13.2064 25.5255 12.8174 24.5806C12.6377 24.2143 12.6377 23.6659 12.3386 23.4831C11.8897 24.1537 11.2314 24.733 10.9022 25.556C10.3339 26.8669 10.2738 28.4827 10.0643 30.1592C9.94461 30.1901 10.0043 30.1592 9.94444 30.2206C8.98706 29.9763 8.65784 28.9705 8.29852 28.1168C7.40065 25.9524 7.25101 22.477 8.02933 19.9772C8.23883 19.3369 9.1367 17.325 8.77755 16.7152C8.59798 16.1359 7.99923 15.8005 7.67018 15.3433C7.28128 14.764 6.8621 14.0326 6.59291 13.3922C5.87462 11.6849 5.51547 9.79478 4.73749 8.08755C4.37834 7.29483 3.75017 6.47197 3.24121 5.74022C2.67273 4.91718 2.04422 4.33771 1.59529 3.36223C1.44582 3.02702 1.23614 2.47821 1.47557 2.11234C1.53543 1.86842 1.65497 1.77713 1.89458 1.71615C2.28366 1.38059 3.39103 1.80745 3.77976 1.99038C4.88713 2.44737 5.81476 2.87457 6.74256 3.51467C7.16139 3.81957 7.61032 4.39887 8.14887 4.55131H8.77738C9.73511 4.76456 10.8122 4.61229 11.7101 4.88652C13.2963 5.40466 14.7326 6.1669 16.0195 6.99011C19.9399 9.52038 23.1715 13.1178 25.3563 17.4163C25.7155 18.1172 25.8649 18.7578 26.1942 19.4892C26.8228 20.9832 27.6008 22.5074 28.229 23.9708C28.8575 25.4034 29.4559 26.8669 30.3538 28.056C30.8027 28.6959 32.5981 29.0315 33.4062 29.3669C34.0048 29.6411 34.9326 29.8852 35.4711 30.2204C36.4885 30.8603 37.5059 31.5924 38.4637 32.2933C38.9425 32.6592 40.4386 33.4214 40.5286 34.031Z" fill="#00546B"/>
<path d="M10.0041 7.53857C9.49551 7.53857 9.13653 7.5999 8.77739 7.6912V7.75218H8.83725C9.07685 8.24 9.49551 8.57539 9.79463 9.00206C10.0342 9.48972 10.2436 9.97772 10.4832 10.4656C10.5129 10.4349 10.5429 10.4046 10.5429 10.4046C10.962 10.0995 11.1714 9.61185 11.1714 8.88011C10.9918 8.66686 10.9619 8.45343 10.8122 8.24001C10.6328 7.93494 10.2436 7.78266 10.0041 7.53857Z" fill="#00546B"/>
</svg>
