<svg width="120" height="44" viewBox="0 0 120 44" fill="none" xmlns="http://www.w3.org/2000/svg">
<mask id="mask0_205_185" style="mask-type:luminance" maskUnits="userSpaceOnUse" x="10" y="12" width="100" height="21">
<path d="M110 12H10V32.3H110V12Z" fill="white"/>
</mask>
<g mask="url(#mask0_205_185)">
<path d="M76.4767 12.0083H93.895V15.2226H86.9854V32.1321H83.5303V15.2226H76.4767V12.0083Z" fill="black"/>
<path d="M47.8304 12.0083V15.2226H33.8685V20.3932H45.0967V23.6075H33.8685V28.918H47.8304V32.1321H30.4137V15.2226H30.4122V12.0083H47.8304Z" fill="black"/>
<path d="M56.5279 12.0168H52.0066L68.201 32.1408H72.7355L64.6373 22.0858L72.7226 12.0322L68.201 12.0392L62.3736 19.275L56.5279 12.0168Z" fill="black"/>
<path d="M61.1675 26.3915L58.9033 23.5769L51.9937 32.1562H56.5279L61.1675 26.3915Z" fill="black"/>
<path fill-rule="evenodd" clip-rule="evenodd" d="M30.5348 32.1322L14.3186 12H10V32.1238H13.4548V16.3014L26.1946 32.1322H30.5348Z" fill="black"/>
<path d="M94.6719 32.0095C94.4188 32.0095 94.2036 31.9218 94.0234 31.7466C93.8432 31.5713 93.7541 31.3592 93.7564 31.1078C93.7541 30.8633 93.8432 30.6534 94.0234 30.4782C94.2036 30.3029 94.4188 30.2152 94.6719 30.2152C94.9153 30.2152 95.1282 30.3029 95.3084 30.4782C95.4912 30.6534 95.5823 30.8633 95.5848 31.1078C95.5823 31.2738 95.5402 31.426 95.4559 31.562C95.3693 31.7005 95.2594 31.8089 95.1211 31.8872C94.9853 31.968 94.8356 32.0095 94.6719 32.0095Z" fill="black"/>
<path d="M100.568 23.532H102.099V29.4289C102.097 29.9709 101.98 30.4345 101.751 30.8242C101.519 31.2139 101.198 31.5115 100.786 31.7213C100.377 31.9289 99.8967 32.035 99.3512 32.035C98.8525 32.035 98.4055 31.945 98.0076 31.7697C97.6096 31.5945 97.2936 31.3316 97.0619 30.9857C96.8276 30.6397 96.7129 30.2085 96.7129 29.6919H98.2464C98.2487 29.9179 98.3002 30.1139 98.3984 30.2777C98.4967 30.4414 98.6324 30.5659 98.8058 30.6536C98.9812 30.7411 99.1827 30.785 99.4096 30.785C99.6555 30.785 99.8662 30.7342 100.037 30.6305C100.208 30.529 100.339 30.3768 100.43 30.1739C100.519 29.9732 100.566 29.7242 100.568 29.4289V23.532Z" fill="black"/>
<path d="M108.399 25.8381C108.361 25.4807 108.197 25.2016 107.912 25.0033C107.624 24.8026 107.252 24.7035 106.795 24.7035C106.475 24.7035 106.198 24.7519 105.969 24.8465C105.74 24.9433 105.562 25.0725 105.44 25.2362C105.318 25.4 105.257 25.5868 105.253 25.7966C105.253 25.9719 105.295 26.1241 105.377 26.251C105.459 26.3801 105.569 26.4885 105.711 26.5761C105.852 26.6661 106.009 26.7399 106.18 26.7998C106.353 26.8598 106.526 26.9106 106.699 26.952L107.497 27.1481C107.818 27.2219 108.13 27.3211 108.427 27.4478C108.724 27.5724 108.993 27.7316 109.23 27.9229C109.466 28.1144 109.654 28.3449 109.792 28.6148C109.93 28.8846 110 29.2005 110 29.565C110 30.0561 109.874 30.4874 109.618 30.8611C109.363 31.2323 108.996 31.5229 108.513 31.7328C108.034 31.9403 107.453 32.0464 106.77 32.0464C106.109 32.0464 105.534 31.945 105.049 31.7421C104.562 31.5414 104.183 31.2462 103.909 30.8588C103.635 30.4712 103.488 29.9986 103.467 29.4427H104.984C105.005 29.7333 105.098 29.9755 105.257 30.1715C105.419 30.3652 105.629 30.5082 105.887 30.605C106.147 30.6996 106.437 30.748 106.758 30.748C107.093 30.748 107.388 30.6973 107.643 30.5981C107.895 30.4989 108.094 30.3606 108.237 30.1807C108.382 30.0032 108.455 29.7933 108.457 29.5535C108.455 29.3343 108.389 29.1521 108.263 29.0092C108.134 28.8662 107.956 28.7462 107.729 28.6494C107.5 28.5526 107.233 28.4649 106.929 28.3888L105.96 28.1444C105.26 27.9667 104.705 27.697 104.3 27.3349C103.893 26.9728 103.691 26.4931 103.691 25.8912C103.691 25.3977 103.827 24.9641 104.101 24.5928C104.372 24.2216 104.745 23.9332 105.215 23.728C105.688 23.5204 106.222 23.4189 106.816 23.4189C107.42 23.4189 107.949 23.5204 108.406 23.728C108.862 23.9332 109.221 24.2192 109.48 24.5836C109.74 24.948 109.876 25.3654 109.883 25.8381H108.399Z" fill="black"/>
</g>
</svg>
