<svg width="120" height="44" viewBox="0 0 120 44" fill="none" xmlns="http://www.w3.org/2000/svg">
<mask id="mask0_205_188" style="mask-type:luminance" maskUnits="userSpaceOnUse" x="10" y="12" width="100" height="21">
<path d="M110 12H10V32.3046H110V12Z" fill="white"/>
</mask>
<g mask="url(#mask0_205_188)">
<path d="M76.4769 12.0083H93.8952V15.2233H86.9856V32.1367H83.5305V15.2233H76.4769V12.0083Z" fill="white"/>
<path d="M47.8304 12.0083V15.2233H33.8685V20.3951H45.0967V23.6101H33.8685V28.9218H47.8304V32.1367H30.4137V15.2233H30.4122V12.0083H47.8304Z" fill="white"/>
<path d="M56.5279 12.0168H52.0066L68.201 32.1453H72.7355L64.6373 22.088L72.7226 12.0322L68.201 12.0392L62.3736 19.2766L56.5279 12.0168Z" fill="white"/>
<path d="M61.1675 26.3945L58.9033 23.5793L51.9937 32.1605H56.5279L61.1675 26.3945Z" fill="white"/>
<path fill-rule="evenodd" clip-rule="evenodd" d="M30.5348 32.1368L14.3186 12H10V32.1284H13.4548V16.3024L26.1946 32.1368H30.5348Z" fill="white"/>
<path d="M94.6719 32.0139C94.4188 32.0139 94.2036 31.9262 94.0234 31.7509C93.8432 31.5756 93.7541 31.3634 93.7564 31.112C93.7541 30.8674 93.8432 30.6575 94.0234 30.4822C94.2036 30.3069 94.4188 30.2192 94.6719 30.2192C94.9153 30.2192 95.1282 30.3069 95.3084 30.4822C95.4912 30.6575 95.5823 30.8674 95.5848 31.112C95.5823 31.278 95.5402 31.4303 95.4559 31.5663C95.3693 31.7048 95.2594 31.8132 95.1211 31.8916C94.9853 31.9724 94.8356 32.0139 94.6719 32.0139Z" fill="white"/>
<path d="M100.568 23.5344H102.099V29.4327C102.097 29.9748 101.98 30.4385 101.751 30.8283C101.519 31.2181 101.198 31.5157 100.786 31.7256C100.377 31.9332 99.8967 32.0393 99.3512 32.0393C98.8525 32.0393 98.4055 31.9493 98.0076 31.774C97.6096 31.5987 97.2936 31.3358 97.0619 30.9898C96.8276 30.6437 96.7129 30.2124 96.7129 29.6957H98.2464C98.2487 29.9218 98.3002 30.1178 98.3984 30.2816C98.4967 30.4454 98.6324 30.5699 98.8058 30.6576C98.9812 30.7452 99.1827 30.7891 99.4096 30.7891C99.6555 30.7891 99.8662 30.7383 100.037 30.6345C100.208 30.533 100.339 30.3808 100.43 30.1778C100.519 29.9771 100.566 29.728 100.568 29.4327V23.5344Z" fill="white"/>
<path d="M108.399 25.8411C108.361 25.4836 108.197 25.2045 107.912 25.0061C107.624 24.8054 107.252 24.7062 106.795 24.7062C106.475 24.7062 106.198 24.7547 105.969 24.8493C105.74 24.9461 105.562 25.0753 105.44 25.2391C105.318 25.4029 105.257 25.5897 105.253 25.7996C105.253 25.9749 105.295 26.1272 105.377 26.2541C105.459 26.3832 105.569 26.4916 105.711 26.5793C105.852 26.6693 106.009 26.7431 106.18 26.803C106.353 26.863 106.526 26.9138 106.699 26.9553L107.497 27.1514C107.818 27.2252 108.13 27.3244 108.427 27.4512C108.724 27.5758 108.993 27.735 109.23 27.9264C109.466 28.1179 109.654 28.3485 109.792 28.6184C109.93 28.8883 110 29.2043 110 29.5688C110 30.0601 109.874 30.4915 109.618 30.8652C109.363 31.2365 108.996 31.5272 108.513 31.7371C108.034 31.9447 107.453 32.0508 106.77 32.0508C106.109 32.0508 105.534 31.9494 105.049 31.7464C104.562 31.5457 104.183 31.2504 103.909 30.8629C103.635 30.4753 103.488 30.0025 103.467 29.4465H104.984C105.005 29.7372 105.098 29.9794 105.257 30.1755C105.419 30.3692 105.629 30.5123 105.887 30.6091C106.147 30.7037 106.437 30.7521 106.758 30.7521C107.093 30.7521 107.388 30.7014 107.643 30.6022C107.895 30.503 108.094 30.3646 108.237 30.1847C108.382 30.0071 108.455 29.7972 108.457 29.5573C108.455 29.3381 108.389 29.1559 108.263 29.0129C108.134 28.8699 107.956 28.7499 107.729 28.653C107.5 28.5562 107.233 28.4685 106.929 28.3924L105.96 28.1479C105.26 27.9702 104.705 27.7004 104.3 27.3382C103.893 26.9761 103.691 26.4963 103.691 25.8942C103.691 25.4006 103.827 24.9669 104.101 24.5955C104.372 24.2242 104.745 23.9358 105.215 23.7305C105.688 23.5229 106.222 23.4214 106.816 23.4214C107.42 23.4214 107.949 23.5229 108.406 23.7305C108.862 23.9358 109.221 24.2218 109.48 24.5863C109.74 24.9508 109.876 25.3683 109.883 25.8411H108.399Z" fill="white"/>
</g>
</svg>
