<svg width="40" height="44" viewBox="0 0 40 44" fill="none" xmlns="http://www.w3.org/2000/svg">
<path d="M18.1953 0.469418C19.2882 -0.155062 20.7118 -0.157882 21.8038 0.469418C27.2977 3.56815 32.7933 6.66203 38.2862 9.76265C39.3193 10.3436 40.0104 11.4913 39.9999 12.6796V31.3228C40.0076 32.5603 39.2482 33.7355 38.1582 34.3032C32.6824 37.3849 27.2095 40.4703 21.7346 43.5519C20.619 44.1886 19.1669 44.1396 18.0861 43.4507C16.4445 42.5007 14.8 41.5555 13.1582 40.6064C12.8227 40.4068 12.4446 40.2479 12.2077 39.9232C12.4171 39.6414 12.7915 39.6063 13.0958 39.4833C13.781 39.2658 14.4104 38.9167 15.0399 38.5779C15.1991 38.4691 15.3935 38.5108 15.5461 38.6081C16.9499 39.4116 18.3413 40.2383 19.7498 41.0341C20.0502 41.2073 20.3545 40.9774 20.6113 40.8345C25.9848 37.8029 31.3648 34.7829 36.7373 31.7504C36.9364 31.6548 37.0464 31.4439 37.0303 31.2262C37.034 25.0763 37.0312 18.9252 37.0322 12.7752C37.0549 12.5282 36.9117 12.3012 36.688 12.2001C31.2312 9.13252 25.7772 6.06027 20.3214 2.99194C20.2268 2.92707 20.1149 2.89226 20.0002 2.8921C19.8854 2.89193 19.7734 2.92641 19.6787 2.991C14.2228 6.06027 8.76974 9.13535 3.31388 12.2027C3.09095 12.304 2.94134 12.5273 2.96787 12.7752C2.96881 18.9252 2.96787 25.0763 2.96787 31.2272C2.95841 31.3334 2.98178 31.4399 3.03483 31.5325C3.08788 31.625 3.16806 31.6991 3.26458 31.7448C4.7205 32.5689 6.17831 33.3872 7.63518 34.2085C8.45592 34.6495 9.46364 34.9115 10.3679 34.5737C11.1659 34.288 11.7252 33.4752 11.71 32.6294C11.7175 26.5153 11.7062 20.4003 11.7157 14.2871C11.6957 14.0157 11.9537 13.7914 12.218 13.817C12.9176 13.8123 13.6181 13.8076 14.3176 13.8189C14.6096 13.8123 14.8106 14.1045 14.7744 14.378C14.7716 20.5308 14.782 26.6838 14.7697 32.8366C14.7716 34.4764 14.0967 36.2606 12.5772 37.063C10.7053 38.031 8.39155 37.8257 6.54221 36.8975C4.94123 36.0999 3.41341 35.1585 1.84084 34.304C0.748035 33.7394 -0.00755738 32.5595 0.000135121 31.3229V12.6796C-0.0113251 11.4667 0.707217 10.2981 1.77255 9.72566C7.24741 6.6415 12.7213 3.55499 18.1953 0.469418Z" fill="#8CC84B"/>
<path d="M22.9715 13.3836C25.3593 13.2302 27.9156 13.2928 30.0643 14.467C31.7279 15.3668 32.6502 17.2553 32.6796 19.1002C32.6331 19.349 32.3725 19.4863 32.1345 19.4692C31.4417 19.4683 30.7487 19.4786 30.056 19.4645C29.7621 19.4758 29.5913 19.2053 29.5544 18.946C29.3553 18.0632 28.873 17.189 28.0407 16.7632C26.7629 16.1246 25.2814 16.1567 23.8881 16.1701C22.871 16.224 21.7773 16.3119 20.9155 16.9089C20.254 17.3612 20.053 18.2742 20.2891 19.0094C20.5118 19.5374 21.1223 19.7077 21.6218 19.8648C24.4995 20.616 27.5488 20.5413 30.3715 21.5299C31.5401 21.933 32.6833 22.7165 33.0833 23.9379C33.6066 25.5749 33.3772 27.5315 32.2105 28.8457C31.2643 29.9271 29.8862 30.5157 28.5118 30.8354C26.6833 31.2423 24.7858 31.2527 22.9289 31.072C21.1829 30.8733 19.3659 30.4154 18.018 29.2279C16.8654 28.2289 16.3024 26.6723 16.3583 25.1699C16.3716 24.9162 16.6247 24.7393 16.8682 24.7601C17.5658 24.7545 18.2635 24.7526 18.9612 24.7611C19.2398 24.7412 19.4464 24.9816 19.4607 25.2437C19.5894 26.0848 19.9061 26.9675 20.6408 27.4662C22.0587 28.3793 23.8379 28.3168 25.4615 28.3423C26.8066 28.2828 28.3165 28.2647 29.4142 27.3773C29.9933 26.8711 30.1649 26.0243 30.0084 25.2958C29.8388 24.6807 29.1942 24.3941 28.6407 24.2067C25.8 23.3097 22.7165 23.6351 19.9033 22.6208C18.7612 22.2179 17.6567 21.4561 17.218 20.2849C16.6057 18.6272 16.8862 16.5769 18.1753 15.3071C19.4321 14.044 21.2465 13.5576 22.9715 13.3835V13.3836Z" fill="#8CC84B"/>
</svg>
