<svg width="32" height="44" viewBox="0 0 32 44" fill="none" xmlns="http://www.w3.org/2000/svg">
<g clip-path="url(#clip0_162_21)">
<path fill-rule="evenodd" clip-rule="evenodd" d="M24.7461 16.63V33.2601L27.08 33.2351L29.4138 33.2102L29.4368 16.6051L29.4597 0H24.7461V16.63ZM10.0631 7.61359V12.6115H14.7762V2.61571H10.0631V7.61359ZM2.54034 27.3715V44H7.2534V10.7431H2.54034V27.3715ZM17.4046 15.7861V20.8323H22.1192L22.0958 15.811L22.0723 10.7898L19.7385 10.7649L17.4046 10.7399V15.7861ZM10.0631 28.1189V33.1635H14.7762V23.0743H10.0631V28.1189ZM17.4046 36.3397V41.3843H22.1177V31.2951H17.4046V36.3397Z" fill="#0C0454"/>
<path fill-rule="evenodd" clip-rule="evenodd" d="M10.0631 17.8896V20.2718H14.7762V15.5074H10.0631V17.8896ZM17.4046 26.1104V28.4926H22.1177V23.7283H17.4046V26.1104Z" fill="#F36848"/>
</g>
<defs>
<clipPath id="clip0_162_21">
<rect width="32" height="44" fill="white"/>
</clipPath>
</defs>
</svg>
