<svg width="44" height="44" viewBox="0 0 44 44" fill="none" xmlns="http://www.w3.org/2000/svg">
<path d="M39.412 8.55342C36.7524 5.10937 33.1312 2.5314 29.0063 1.14555C24.8815 -0.240304 20.4383 -0.371785 16.2387 0.767735C12.0392 1.90725 8.27183 4.26659 5.41321 7.54734C2.55459 10.8281 0.73308 14.8829 0.179057 19.199C-0.374965 23.515 0.363382 27.8984 2.30072 31.7948C4.23805 35.6912 7.28736 38.9256 11.063 41.0888C14.8386 43.2521 19.1709 44.2471 23.5121 43.948C27.8532 43.6488 32.0081 42.0691 35.4514 39.4084C45.0625 31.9807 46.8363 18.1681 39.4113 8.55342H39.412Z" fill="#FF6C37"/>
<path d="M29.4199 14.0178L20.1436 23.3678L17.5222 20.6728C26.652 11.5428 27.5684 12.3678 29.4205 14.0178H29.4199Z" fill="white"/>
<path d="M20.1436 23.6234C20.0615 23.6214 19.983 23.5888 19.9236 23.532L17.2836 20.892C17.2242 20.8304 17.191 20.7482 17.191 20.6627C17.191 20.5771 17.2242 20.4949 17.2836 20.4334C26.285 11.432 27.5135 11.8534 29.64 13.7784C29.6756 13.8069 29.7041 13.8433 29.7231 13.8847C29.7422 13.9261 29.7514 13.9714 29.75 14.017C29.7637 14.1064 29.7293 14.1978 29.6585 14.2555L20.3822 23.5327C20.3171 23.5923 20.2319 23.625 20.1436 23.6241V23.6234ZM17.9801 20.672L20.1436 22.8355L28.9435 14.0355C28.6397 13.6548 28.2062 13.3994 27.7258 13.3182C27.2455 13.237 26.7521 13.3358 26.34 13.5955C24.745 14.3105 22.1786 16.492 17.9801 20.672Z" fill="#FF6C37"/>
<path d="M22.8021 25.9526L20.2721 23.3676L29.5485 14.2006C32.0421 16.6391 28.3385 20.7091 22.8021 25.9519V25.9526Z" fill="white"/>
<path d="M22.8022 26.2826C22.721 26.2762 22.644 26.2442 22.5822 26.1912L19.9972 23.6612C19.9584 23.5672 19.9584 23.4616 19.9972 23.3676C19.9697 23.2905 19.9697 23.2062 19.9972 23.1291L29.2736 13.8527C29.3381 13.792 29.4233 13.7583 29.5118 13.7583C29.6003 13.7583 29.6855 13.792 29.75 13.8527C30.0504 14.1292 30.2878 14.4671 30.4459 14.8435C30.604 15.2199 30.6793 15.626 30.6664 16.0341C30.6664 18.5091 27.8429 21.6255 23.0401 26.1726C22.9759 26.2361 22.8915 26.2751 22.8015 26.2826H22.8022ZM20.7486 23.3676L22.8201 25.4384C26.4865 21.9734 29.9886 18.3984 30.0065 15.9784C30.0264 15.4654 29.8568 14.963 29.53 14.567L20.7486 23.3676Z" fill="#FF6C37"/>
<path d="M17.5951 20.7277L19.4286 22.5613C19.4403 22.5716 19.4497 22.5843 19.4561 22.5985C19.4625 22.6127 19.4658 22.6282 19.4658 22.6438C19.4658 22.6594 19.4625 22.6748 19.4561 22.689C19.4497 22.7033 19.4403 22.716 19.4286 22.7263L15.5601 23.5513C15.482 23.5681 15.4005 23.559 15.3281 23.5253C15.2557 23.4916 15.1963 23.4351 15.1589 23.3645C15.1215 23.2939 15.1083 23.213 15.1211 23.1341C15.134 23.0553 15.1722 22.9828 15.2301 22.9277L17.4851 20.6913C17.4851 20.6913 17.5586 20.6913 17.5951 20.7277Z" fill="white"/>
<path d="M15.4686 23.9177C15.3464 23.9162 15.2266 23.8833 15.1207 23.8223C15.0148 23.7613 14.9263 23.6741 14.8636 23.5691C14.7931 23.4362 14.7676 23.284 14.7907 23.1353C14.8139 22.9866 14.8846 22.8493 14.9922 22.7441L17.2286 20.4891C17.3092 20.417 17.4136 20.3772 17.5218 20.3772C17.63 20.3772 17.7344 20.417 17.815 20.4891L19.6486 22.3227C19.7572 22.4258 19.7998 22.5819 19.7586 22.7263C19.7173 22.8706 19.5963 22.9854 19.4471 23.0198L15.5786 23.8448L15.4686 23.9177ZM17.5221 21.1313L15.4507 23.2027L18.8793 22.4691L17.5221 21.1313Z" fill="#FF6C37"/>
<path d="M34.3521 8.86555C33.0252 7.58543 30.9407 7.5318 29.5492 8.73974C28.1577 9.94767 27.9198 12.0212 29.0033 13.513C30.0868 15.0049 32.1294 15.4229 33.7107 14.4755L31.2171 11.982L34.3521 8.86555Z" fill="white"/>
<path d="M31.8771 15.3185C31.1148 15.3087 30.3722 15.0748 29.7419 14.646C29.1115 14.2171 28.6213 13.6122 28.3324 12.9067C28.0436 12.2018 27.9678 11.4276 28.1145 10.68C28.2611 9.93245 28.6237 9.24426 29.1574 8.70061C29.8914 7.98009 30.8788 7.57642 31.9074 7.57642C32.9359 7.57642 33.9234 7.98009 34.6574 8.70061C34.7275 8.75973 34.7674 8.84705 34.7674 8.93917C34.7672 8.9845 34.7573 9.02925 34.7383 9.07041C34.7193 9.11157 34.6917 9.14817 34.6574 9.17773L31.6874 11.9827L33.9424 14.2013C33.9789 14.2362 34.0063 14.2795 34.0223 14.3274C34.0382 14.3754 34.0422 14.4265 34.0338 14.4763C34.0284 14.5244 34.0124 14.5707 33.9871 14.6119C33.9618 14.6531 33.9278 14.6883 33.8874 14.7149C33.2816 15.0935 32.5851 15.3025 31.8709 15.3199L31.8771 15.3185ZM31.8771 8.20492C30.5709 8.2118 29.4021 8.99761 28.9119 10.1987C28.4217 11.3997 28.6885 12.7823 29.6042 13.7049C30.0597 14.1631 30.643 14.473 31.2776 14.594C31.9121 14.7151 32.5685 14.6417 33.1607 14.3835L30.9971 12.2199C30.9627 12.1924 30.935 12.1575 30.9159 12.1178C30.8968 12.0782 30.8869 12.0347 30.8869 11.9906C30.8869 11.9466 30.8968 11.9031 30.9159 11.8634C30.935 11.8238 30.9627 11.7889 30.9971 11.7614L33.8571 8.8828C33.2886 8.44708 32.5934 8.20883 31.8771 8.20423V8.20492Z" fill="#FF6C37"/>
<path d="M34.407 8.92053L31.2721 12.037L33.7656 14.5305C34.0166 14.3864 34.2502 14.2141 34.462 14.0169C35.1156 13.3262 35.4751 12.4085 35.4649 11.4576C35.4546 10.5067 35.0753 9.59704 34.407 8.92053Z" fill="white"/>
<path d="M33.7099 14.8056C33.6688 14.8078 33.6276 14.8007 33.5895 14.7849C33.5514 14.7691 33.5174 14.7449 33.4899 14.7141L30.9964 12.2206C30.962 12.1931 30.9342 12.1582 30.9152 12.1185C30.8961 12.0788 30.8862 12.0353 30.8862 11.9913C30.8862 11.9473 30.8961 11.9038 30.9152 11.8641C30.9342 11.8244 30.962 11.7895 30.9964 11.762L34.1128 8.70056C34.1429 8.65518 34.1838 8.61796 34.2318 8.59221C34.2797 8.56645 34.3334 8.55298 34.3878 8.55298C34.4423 8.55298 34.4959 8.56645 34.5439 8.59221C34.5918 8.61796 34.6327 8.65518 34.6628 8.70056C35.0287 9.05903 35.3193 9.4869 35.5177 9.95911C35.7162 10.4313 35.8184 10.9384 35.8184 11.4506C35.8184 11.9628 35.7162 12.4698 35.5177 12.942C35.3193 13.4142 35.0287 13.8421 34.6628 14.2006C34.447 14.4295 34.2001 14.6269 33.9293 14.787C33.8611 14.8214 33.7822 14.828 33.7093 14.8056H33.7099ZM31.6935 11.9827L33.7649 14.0541C33.9074 13.9543 34.0423 13.844 34.1685 13.7241C34.7774 13.1169 35.1204 12.2927 35.1221 11.4327C35.1235 10.6631 34.8429 9.91958 34.3335 9.34269L31.6935 11.9827Z" fill="#FF6C37"/>
<path d="M29.805 14.4027C29.5567 14.1695 29.2288 14.0397 28.8882 14.0397C28.5476 14.0397 28.2197 14.1695 27.9714 14.4027L19.6672 22.6884L21.0422 24.082L29.8235 16.382C29.9575 16.2536 30.0637 16.0992 30.1357 15.9283C30.2077 15.7573 30.2439 15.5734 30.2422 15.388C30.2404 15.2025 30.2008 15.0193 30.1256 14.8497C30.0504 14.6802 29.9413 14.5278 29.805 14.402V14.4027Z" fill="white"/>
<path d="M20.9686 24.4127C20.8864 24.4107 20.808 24.3781 20.7486 24.3213L19.355 22.9277C19.2956 22.8662 19.2624 22.784 19.2624 22.6984C19.2624 22.6129 19.2956 22.5307 19.355 22.4691L27.66 14.2006C27.8992 13.9617 28.2047 13.8001 28.5368 13.7369C28.8689 13.6737 29.2124 13.7117 29.5226 13.8461C29.8329 13.9804 30.0956 14.2049 30.2767 14.4903C30.4579 14.7758 30.5491 15.1091 30.5385 15.447C30.529 15.6764 30.4738 15.9016 30.3762 16.1093C30.2785 16.3171 30.1404 16.5033 29.97 16.657L21.1886 24.357C21.1247 24.4022 21.0462 24.4218 20.9686 24.412V24.4127ZM19.9972 22.6885L20.9136 23.6235L29.53 16.1249C29.7431 15.9393 29.8703 15.6739 29.8785 15.3913C29.8868 15.1088 29.7754 14.8324 29.5671 14.6399C29.3747 14.4483 29.1143 14.3408 28.8428 14.3408C28.5713 14.3408 28.3109 14.4483 28.1185 14.6399L19.9972 22.6885Z" fill="#FF6C37"/>
<path d="M13.2322 32.1306C13.2088 32.1625 13.1961 32.201 13.1961 32.2406C13.1961 32.2802 13.2088 32.3187 13.2322 32.3506L13.5987 33.9456C13.6134 34.0395 13.5994 34.1356 13.5587 34.2214C13.518 34.3073 13.4524 34.3788 13.3704 34.4269C13.2887 34.4746 13.194 34.4953 13.0999 34.4857C13.0057 34.4762 12.917 34.4371 12.8466 34.3739L10.3351 31.9539L18.1636 24.0635H20.8771L22.7107 25.897C19.8505 28.3978 16.6614 30.4951 13.2322 32.1306Z" fill="white"/>
<path d="M13.0673 34.8255C12.8596 34.8214 12.6548 34.7361 12.5173 34.5869L10.1158 32.1855C10.0815 32.158 10.0537 32.1231 10.0346 32.0834C10.0155 32.0437 10.0056 32.0003 10.0056 31.9562C10.0056 31.9122 10.0155 31.8687 10.0346 31.829C10.0537 31.7893 10.0815 31.7545 10.1158 31.727L17.9987 23.8255C18.0428 23.7786 18.1005 23.7466 18.1637 23.7341H20.8951C20.9662 23.7089 21.0439 23.7089 21.1151 23.7341L22.9486 25.5676C22.9835 25.5998 23.01 25.6399 23.0259 25.6846C23.0419 25.7293 23.0467 25.7771 23.04 25.8241C23.0413 25.8696 23.0321 25.9149 23.013 25.9563C22.9939 25.9976 22.9655 26.034 22.93 26.0626L22.7836 26.1912C19.9119 28.5853 16.7525 30.6114 13.3787 32.2226L13.7273 33.7076C13.7542 33.8222 13.7552 33.9413 13.7303 34.0563C13.7053 34.1713 13.655 34.2793 13.583 34.3724C13.511 34.4655 13.4191 34.5413 13.3141 34.5944C13.209 34.6474 13.0935 34.6764 12.9758 34.6791L13.0673 34.8255ZM10.8308 31.947L12.9937 34.1284C13.0139 34.1464 13.0399 34.1563 13.0669 34.1563C13.0939 34.1563 13.12 34.1464 13.1401 34.1284C13.1536 34.1097 13.1609 34.0872 13.1609 34.0641C13.1609 34.041 13.1536 34.0185 13.1401 33.9998L12.7737 32.4048C12.7448 32.2904 12.7564 32.1694 12.8065 32.0625C12.8567 31.9556 12.9422 31.8694 13.0487 31.8184C16.3318 30.2287 19.4097 28.2464 22.2151 25.9148L20.7115 24.4113H18.2551L10.8308 31.947Z" fill="#FF6C37"/>
<path d="M8.44728 33.8355L10.2808 32.002L13.1044 34.8255L8.61297 34.5141C8.53585 34.508 8.46262 34.4778 8.40371 34.4276C8.34481 34.3775 8.30324 34.31 8.28495 34.2349C8.26666 34.1597 8.27257 34.0807 8.30184 34.0091C8.33112 33.9375 8.38226 33.877 8.44797 33.8362L8.44728 33.8355Z" fill="white"/>
<path d="M13.1586 35.1006L8.68512 34.7891C8.41975 34.7644 8.19151 34.5829 8.09801 34.3402C8.00451 34.0975 8.06157 33.8094 8.24513 33.6156L10.0787 31.782C10.1402 31.7226 10.2224 31.6893 10.3079 31.6893C10.3935 31.6893 10.4757 31.7226 10.5372 31.782L13.3422 34.587C13.381 34.6402 13.402 34.7044 13.402 34.7702C13.402 34.8361 13.381 34.9002 13.3422 34.9534C13.2998 35.022 13.2349 35.0738 13.1586 35.0999V35.1006ZM8.68512 34.0741L12.3515 34.3127L10.3351 32.4241L8.68512 34.0741Z" fill="#FF6C37"/>
<path d="M21.1335 24.2848L17.4301 24.8534L19.575 22.7269L21.1335 24.2848Z" fill="white"/>
<path d="M17.4301 25.2005C17.3685 25.2021 17.3078 25.1856 17.2556 25.1529C17.2034 25.1203 17.162 25.073 17.1365 25.017C17.0975 24.9639 17.0764 24.8997 17.0764 24.8337C17.0764 24.7678 17.0975 24.7036 17.1365 24.6505L19.2629 22.5055C19.3274 22.4449 19.4126 22.4111 19.5011 22.4111C19.5896 22.4111 19.6748 22.4449 19.7393 22.5055L21.2985 24.0634C21.3297 24.1128 21.3462 24.17 21.3462 24.2284C21.3462 24.2868 21.3297 24.344 21.2985 24.3934C21.2833 24.4536 21.2509 24.5081 21.2055 24.5504C21.16 24.5927 21.1033 24.621 21.0421 24.632L17.3757 25.2005H17.4301ZM19.575 23.2019L18.3836 24.3934L20.4371 24.082L19.575 23.2019Z" fill="#FF6C37"/>
<path d="M21.1336 24.2834L18.5486 24.6134C18.4794 24.6291 18.407 24.6221 18.3422 24.5935C18.2773 24.5648 18.2234 24.516 18.1884 24.4542C18.1535 24.3925 18.1393 24.3212 18.1481 24.2508C18.1569 24.1804 18.1881 24.1147 18.2372 24.0634L19.5757 22.7249L21.1336 24.2834Z" fill="white"/>
<path d="M18.4751 24.9628C18.3552 24.9616 18.2379 24.9288 18.1348 24.8675C18.0318 24.8063 17.9469 24.7189 17.8886 24.6142C17.8186 24.4887 17.7915 24.3438 17.8113 24.2015C17.8312 24.0591 17.8969 23.9272 17.9986 23.8256L19.3372 22.4871C19.4017 22.4265 19.4869 22.3927 19.5754 22.3927C19.6639 22.3927 19.7491 22.4265 19.8136 22.4871L21.3722 24.0456C21.4185 24.0896 21.4511 24.146 21.466 24.2081C21.481 24.2701 21.4776 24.3352 21.4562 24.3954C21.4349 24.4556 21.3966 24.5083 21.3459 24.5471C21.2952 24.586 21.2344 24.6093 21.1707 24.6142L18.6043 24.9442L18.4751 24.9628ZM18.4751 24.2842L20.4186 24.0456L19.5572 23.1842L18.4572 24.2842H18.4751ZM34.4249 11.0292C34.3904 10.9713 34.3358 10.9282 34.2716 10.9079C34.2073 10.8876 34.1378 10.8916 34.0764 10.9192C34.046 10.9346 34.0191 10.9559 33.9971 10.9818C33.9751 11.0078 33.9586 11.0379 33.9485 11.0704C33.9281 11.136 33.9345 11.2069 33.9664 11.2677C34.0949 11.5379 34.0592 11.8576 33.8749 12.0927C33.852 12.1154 33.8341 12.1425 33.8223 12.1725C33.8104 12.2024 33.805 12.2345 33.8062 12.2667C33.8068 12.3312 33.8313 12.3931 33.8749 12.4406C33.922 12.4592 33.9743 12.4592 34.0214 12.4406C34.064 12.4514 34.1089 12.4502 34.1509 12.4372C34.193 12.4242 34.2307 12.4 34.2599 12.3671C34.4109 12.1822 34.5065 11.9585 34.5357 11.7216C34.5649 11.4847 34.5265 11.2445 34.4249 11.0285V11.0292Z" fill="#FF6C37"/>
</svg>
