<svg width="44" height="44" viewBox="0 0 44 44" fill="none" xmlns="http://www.w3.org/2000/svg">
<path d="M21.8415 0C10.6715 0 11.369 4.86927 11.369 4.86927L11.3814 9.91398H22.0406V11.4285H7.14766C7.14766 11.4285 0 10.6137 0 21.943C0 33.2726 6.23865 32.8708 6.23865 32.8708H9.96185V27.6134C9.96185 27.6134 9.76114 21.3422 16.1009 21.3422H26.673C26.673 21.3422 32.6128 21.4386 32.6128 15.5716V5.87083C32.6128 5.87083 33.5149 0 21.8415 0ZM15.9639 3.39247C16.2158 3.39224 16.4653 3.44194 16.698 3.53874C16.9308 3.63553 17.1423 3.77751 17.3204 3.95655C17.4985 4.13559 17.6397 4.34818 17.736 4.58215C17.8323 4.81612 17.8818 5.06688 17.8815 5.32009C17.8818 5.57329 17.8323 5.82405 17.736 6.05802C17.6397 6.292 17.4985 6.50459 17.3204 6.68363C17.1423 6.86267 16.9308 7.00465 16.698 7.10144C16.4653 7.19823 16.2158 7.24793 15.9639 7.2477C15.7121 7.24793 15.4626 7.19823 15.2298 7.10144C14.9971 7.00465 14.7856 6.86267 14.6075 6.68363C14.4294 6.50459 14.2881 6.292 14.1919 6.05802C14.0956 5.82405 14.0461 5.57329 14.0464 5.32009C14.0461 5.06688 14.0956 4.81612 14.1919 4.58215C14.2881 4.34818 14.4294 4.13559 14.6075 3.95655C14.7856 3.77751 14.9971 3.63553 15.2298 3.53874C15.4626 3.44194 15.7121 3.39224 15.9639 3.39247Z" fill="url(#paint0_linear_74_6021)"/>
<path d="M22.1587 44C33.3287 44 32.6312 39.1307 32.6312 39.1307L32.6188 34.0861H21.9594V32.5716H36.8524C36.8524 32.5716 44 33.3864 44 22.0568C44 10.7273 37.7614 11.1291 37.7614 11.1291H34.0382V16.3863C34.0382 16.3863 34.2389 22.6576 27.8991 22.6576H17.327C17.327 22.6576 11.3873 22.5611 11.3873 28.4283V38.1293C11.3873 38.1293 10.4853 44 22.1585 44H22.1587ZM28.0362 40.6078C27.7843 40.6081 27.5349 40.5584 27.3021 40.4616C27.0694 40.3648 26.8579 40.2228 26.6798 40.0438C26.5017 39.8647 26.3604 39.6521 26.2641 39.4181C26.1679 39.1842 26.1184 38.9334 26.1186 38.6802C26.1184 38.427 26.1678 38.1762 26.2641 37.9422C26.3604 37.7082 26.5016 37.4956 26.6797 37.3166C26.8578 37.1375 27.0693 36.9955 27.3021 36.8987C27.5349 36.8019 27.7843 36.7522 28.0362 36.7524C28.2881 36.7522 28.5376 36.8019 28.7703 36.8987C29.0031 36.9955 29.2146 37.1375 29.3927 37.3165C29.5708 37.4955 29.712 37.7081 29.8083 37.9421C29.9046 38.1761 29.9541 38.4268 29.9538 38.68C29.9541 38.9332 29.9046 39.184 29.8083 39.418C29.712 39.6519 29.5708 39.8645 29.3927 40.0436C29.2146 40.2226 29.0031 40.3646 28.7703 40.4614C28.5376 40.5582 28.2881 40.6079 28.0362 40.6077V40.6078Z" fill="url(#paint1_linear_74_6021)"/>
<defs>
<linearGradient id="paint0_linear_74_6021" x1="4.22838" y1="3.95753" x2="26.1459" y2="25.5436" gradientUnits="userSpaceOnUse">
<stop stop-color="#387EB8"/>
<stop offset="1" stop-color="#366994"/>
</linearGradient>
<linearGradient id="paint1_linear_74_6021" x1="17.6124" y1="17.8922" x2="41.1437" y2="40.0214" gradientUnits="userSpaceOnUse">
<stop stop-color="#FFE052"/>
<stop offset="1" stop-color="#FFC331"/>
</linearGradient>
</defs>
</svg>
