<svg width="44" height="44" viewBox="0 0 44 44" fill="none" xmlns="http://www.w3.org/2000/svg">
<g clip-path="url(#clip0_204_99)">
<mask id="mask0_204_99" style="mask-type:luminance" maskUnits="userSpaceOnUse" x="0" y="0" width="44" height="44">
<path d="M44 0H0V44H44V0Z" fill="white"/>
</mask>
<g mask="url(#mask0_204_99)">
<path d="M22.1349 25.8791C24.2773 25.8791 26.014 24.1424 26.014 22C26.014 19.8576 24.2773 18.1208 22.1349 18.1208C19.9925 18.1208 18.2557 19.8576 18.2557 22C18.2557 24.1424 19.9925 25.8791 22.1349 25.8791Z" fill="#61DAFB"/>
<path d="M22.1348 29.9475C33.6306 29.9475 42.9498 26.3893 42.9498 22C42.9498 17.6107 33.6306 14.0525 22.1348 14.0525C10.6391 14.0525 1.31995 17.6107 1.31995 22C1.31995 26.3893 10.6391 29.9475 22.1348 29.9475Z" stroke="#61DAFB" stroke-width="2"/>
<path d="M15.2521 25.9737C21 35.9293 28.7411 42.2209 32.5423 40.0262C36.3436 37.8315 34.7655 27.9818 29.0176 18.0262C23.2697 8.07057 15.5286 1.77906 11.7274 3.97371C7.92615 6.16836 9.50421 16.0181 15.2521 25.9737Z" stroke="#61DAFB" stroke-width="2"/>
<path d="M15.2521 18.0262C9.50421 27.9818 7.92615 37.8316 11.7274 40.0262C15.5286 42.2208 23.2697 35.9293 29.0176 25.9737C34.7655 16.0181 36.3436 6.16837 32.5423 3.97371C28.7411 1.77906 21 8.07058 15.2521 18.0262Z" stroke="#61DAFB" stroke-width="2"/>
</g>
</g>
<defs>
<clipPath id="clip0_204_99">
<rect width="44" height="44" fill="white"/>
</clipPath>
</defs>
</svg>
