<svg width="44" height="44" viewBox="0 0 44 44" fill="none" xmlns="http://www.w3.org/2000/svg">
<path d="M40.0659 2.53112C39.4337 4.06943 38.6163 5.43318 37.7116 6.6551C33.7225 2.58567 28.142 0 21.9839 0C9.88568 0 0 9.84081 0 21.9945C0 28.3442 2.71393 34.061 7.01916 38.0977L7.83661 38.8287C11.6405 42.0471 16.5888 44 21.973 44C33.5263 44 43.0414 34.9774 43.8589 23.5874C44.5128 18.056 42.8343 10.9755 40.0659 2.53112ZM10.2018 38.2832C9.5696 39.1014 8.39247 39.1887 7.57503 38.5559C6.75758 37.9231 6.67038 36.7449 7.30254 35.9266C7.9347 35.1084 9.11183 35.0211 9.92928 35.6539C10.7031 36.2866 10.8339 37.4649 10.2018 38.2832ZM39.9351 31.7044C34.5399 38.9159 22.9431 36.4721 15.5533 36.8321C15.5533 36.8321 14.2345 36.9194 12.9266 37.1049C12.9266 37.1049 13.428 36.8758 14.0601 36.6467C19.27 34.8356 21.7223 34.4647 24.894 32.8391C30.8342 29.7952 36.7634 23.1292 37.9514 16.2341C35.6844 22.8564 28.796 28.5733 22.5398 30.8862C18.2346 32.479 10.4851 34.0174 10.4851 34.0174L10.1691 33.8319C4.91559 31.2462 4.7303 19.8125 14.3435 16.1359C18.5615 14.4994 22.5507 15.4049 27.1284 14.3248C31.9786 13.1902 37.6026 9.55715 39.8588 4.8004C42.3765 12.4701 45.4611 24.3511 39.9351 31.7044Z" fill="#6CB52D"/>
<path d="M10.2018 38.2831C9.5696 39.1014 8.39247 39.1886 7.57502 38.5559C6.75758 37.9231 6.67038 36.7448 7.30254 35.9266C7.9347 35.1083 9.11183 35.021 9.92928 35.6538C10.7031 36.2866 10.8339 37.4649 10.2018 38.2831Z" fill="#6CB52D"/>
</svg>
