<svg width="44" height="44" viewBox="0 0 44 44" fill="none" xmlns="http://www.w3.org/2000/svg">
<path d="M0 0H44V44H0V0Z" fill="#017ACB"/>
<path d="M21.1269 16.2938H23.2375V19.9375H17.5313V36.1488L17.38 36.19C17.1738 36.245 14.4581 36.245 13.8738 36.1831L13.4063 36.1419V19.9375H7.7V16.2938L9.50813 16.2731C10.4981 16.2594 13.0419 16.2594 15.1594 16.2731C17.2769 16.2869 19.9581 16.2938 21.1269 16.2938ZM37.235 34.43C36.3963 35.3169 35.4957 35.8119 33.9969 36.2175C33.3438 36.3963 33.2338 36.4031 31.7625 36.3963C30.2913 36.3894 30.1744 36.3894 29.4594 36.2038C27.61 35.7294 26.1182 34.8013 25.1007 33.4881C24.8119 33.1169 24.3375 32.3469 24.3375 32.2506C24.3375 32.2231 24.4063 32.1613 24.4956 32.12C24.585 32.0788 24.7707 31.9619 24.9219 31.8725C25.0732 31.7831 25.3482 31.6181 25.5338 31.5219C25.7194 31.4256 26.2557 31.1094 26.7232 30.8275C27.1907 30.5456 27.6169 30.3188 27.665 30.3188C27.7132 30.3188 27.8025 30.415 27.8713 30.5319C28.2838 31.2263 29.2463 32.1131 29.9269 32.4156C30.3463 32.5944 31.2744 32.7938 31.7213 32.7938C32.1338 32.7938 32.89 32.615 33.2957 32.4294C33.7288 32.23 33.9488 32.0306 34.21 31.6319C34.3888 31.35 34.4094 31.2744 34.4025 30.7381C34.4025 30.2431 34.375 30.1056 34.2375 29.8788C33.8525 29.2463 33.33 28.9163 31.2125 27.9813C29.0263 27.0119 28.0432 26.4344 27.2457 25.6575C26.6544 25.08 26.5375 24.9219 26.1663 24.2C25.685 23.2719 25.6232 22.9694 25.6163 21.5875C25.6094 20.6181 25.63 20.3019 25.7332 19.9719C25.8775 19.4769 26.345 18.5213 26.5582 18.2806C26.9982 17.765 27.1563 17.6069 27.4657 17.3525C28.4007 16.5825 29.8582 16.0738 31.2538 16.0256C31.4119 16.0256 31.9344 16.0531 32.4225 16.0875C33.825 16.2044 34.7807 16.5481 35.7019 17.2838C36.3963 17.8338 37.4482 19.1263 37.345 19.2981C37.2763 19.4013 34.5332 21.23 34.3544 21.285C34.2444 21.3194 34.1688 21.2781 34.0175 21.0994C33.0825 19.9788 32.7044 19.7381 31.7969 19.6831C31.1507 19.6419 30.8069 19.7175 30.3738 20.0063C29.92 20.3088 29.7 20.7694 29.7 21.4088C29.7069 22.3438 30.0644 22.7838 31.3844 23.4369C32.2369 23.8563 32.9657 24.2 33.0207 24.2C33.1032 24.2 34.87 25.08 35.3307 25.355C37.4757 26.6131 38.3488 27.9056 38.5757 30.1331C38.7407 31.8106 38.2663 33.3438 37.235 34.43Z" fill="white"/>
</svg>
